<svg xmlns="http://www.w3.org/2000/svg" xmlns:xlink="http://www.w3.org/1999/xlink" width="500" zoomAndPan="magnify" viewBox="0 0 375 374.999991" height="500" preserveAspectRatio="xMidYMid meet" version="1.0"><defs><g/><clipPath id="25f17f7c98"><path d="M 112.5 116.9375 L 262.5 116.9375 L 262.5 228.6875 L 112.5 228.6875 Z M 112.5 116.9375 " clip-rule="nonzero"/></clipPath><clipPath id="ccd30d32c1"><path d="M 198.609375 155.703125 L 178.53125 155.703125 L 217.738281 123.074219 C 218.023438 122.835938 218.382812 122.707031 218.746094 122.707031 L 245.128906 122.707031 C 245.769531 122.707031 246.15625 123.0625 246.328125 123.269531 C 246.503906 123.480469 246.777344 123.925781 246.65625 124.546875 L 246.140625 127.226562 C 246.03125 127.796875 245.617188 128.253906 245.058594 128.421875 L 233.871094 131.769531 C 231.304688 132.539062 229.417969 134.550781 228.820312 137.152344 C 228.222656 139.753906 229.046875 142.378906 231.019531 144.175781 C 234.898438 147.707031 240.269531 153.304688 243.839844 159.949219 C 248.921875 169.414062 248.859375 178.261719 243.683594 186.316406 C 236.5 168.042969 218.699219 155.703125 198.609375 155.703125 Z M 125.398438 170.40625 L 125.300781 170.40625 C 121.507812 170.40625 118.417969 167.328125 118.417969 163.542969 L 118.417969 149.058594 C 118.417969 145.277344 121.507812 142.199219 125.300781 142.199219 L 142.214844 142.199219 C 149.199219 142.199219 154.882812 136.53125 154.882812 129.566406 C 154.882812 122.601562 149.199219 116.9375 142.214844 116.9375 L 122.582031 116.9375 L 122.582031 122.707031 L 142.214844 122.707031 C 146.007812 122.707031 149.097656 125.785156 149.097656 129.566406 C 149.097656 133.351562 146.011719 136.429688 142.214844 136.429688 L 125.300781 136.429688 C 118.316406 136.429688 112.632812 142.097656 112.632812 149.058594 L 112.632812 163.542969 C 112.632812 169.960938 117.460938 175.273438 123.6875 176.066406 C 124.03125 174.089844 124.609375 172.191406 125.398438 170.40625 Z M 261.867188 142.789062 L 250.164062 131.730469 C 249.269531 132.761719 248.085938 133.542969 246.71875 133.949219 L 235.535156 137.296875 C 234.75 137.53125 234.523438 138.175781 234.460938 138.441406 C 234.402344 138.703125 234.324219 139.375 234.921875 139.917969 C 238.839844 143.480469 244.175781 149.019531 248.082031 155.703125 L 255.792969 155.703125 C 256.71875 155.703125 257.625 155.871094 258.480469 156.210938 L 260.242188 156.902344 C 260.902344 157.164062 261.429688 156.914062 261.679688 156.742188 C 261.886719 156.601562 262.359375 156.199219 262.359375 155.460938 L 262.359375 143.921875 C 262.359375 143.496094 262.1875 143.089844 261.867188 142.789062 Z M 244.679688 220.496094 C 242.792969 219.808594 241.511719 218.015625 241.484375 216.03125 L 241.246094 203.210938 C 241.183594 199.777344 240.710938 196.394531 239.851562 193.148438 C 234.9375 174.496094 217.980469 161.472656 198.609375 161.472656 L 147.953125 161.472656 C 137.5625 161.472656 129.105469 169.902344 129.105469 180.261719 L 129.105469 187.703125 C 129.105469 188.816406 128.714844 189.910156 128 190.777344 L 118.417969 202.160156 L 118.417969 228.582031 L 140.730469 228.582031 L 138.453125 224.050781 L 134.667969 222.082031 C 133.222656 221.324219 132.261719 219.914062 132.09375 218.304688 C 131.925781 216.691406 132.574219 215.113281 133.824219 214.082031 L 146.773438 203.453125 L 151.441406 185.835938 L 157.035156 187.308594 L 155.109375 194.582031 L 183.523438 200 L 216.402344 200.296875 C 218.363281 200.3125 220.109375 201.492188 220.84375 203.308594 L 231.078125 228.582031 L 253.449219 228.582031 L 251.300781 222.875 Z M 209.78125 220.582031 C 207.894531 219.894531 206.617188 218.101562 206.585938 216.117188 L 206.398438 205.976562 L 186.917969 205.800781 L 196.175781 228.667969 L 218.554688 228.667969 L 216.402344 222.964844 Z M 209.78125 220.582031 " clip-rule="nonzero"/></clipPath><linearGradient x1="-0.0000102098" gradientTransform="matrix(0.400894, 0, 0, 0.399678, 112.633127, 116.937587)" y1="139.776993" x2="373.485969" gradientUnits="userSpaceOnUse" y2="139.776993" id="d180bae2c1"><stop stop-opacity="1" stop-color="rgb(90.59906%, 83.099365%, 61.999512%)" offset="0"/><stop stop-opacity="1" stop-color="rgb(90.576172%, 83.041382%, 61.90033%)" offset="0.0078125"/><stop stop-opacity="1" stop-color="rgb(90.530396%, 82.923889%, 61.705017%)" offset="0.015625"/><stop stop-opacity="1" stop-color="rgb(90.483093%, 82.807922%, 61.508179%)" offset="0.0234375"/><stop stop-opacity="1" stop-color="rgb(90.437317%, 82.691956%, 61.312866%)" offset="0.03125"/><stop stop-opacity="1" stop-color="rgb(90.391541%, 82.574463%, 61.116028%)" offset="0.0390625"/><stop stop-opacity="1" stop-color="rgb(90.345764%, 82.458496%, 60.920715%)" offset="0.046875"/><stop stop-opacity="1" stop-color="rgb(90.299988%, 82.342529%, 60.723877%)" offset="0.0546875"/><stop stop-opacity="1" stop-color="rgb(90.252686%, 82.226562%, 60.528564%)" offset="0.0625"/><stop stop-opacity="1" stop-color="rgb(90.206909%, 82.10907%, 60.331726%)" offset="0.0703125"/><stop stop-opacity="1" stop-color="rgb(90.161133%, 81.993103%, 60.136414%)" offset="0.078125"/><stop stop-opacity="1" stop-color="rgb(90.115356%, 81.877136%, 59.939575%)" offset="0.0859375"/><stop stop-opacity="1" stop-color="rgb(90.06958%, 81.759644%, 59.744263%)" offset="0.09375"/><stop stop-opacity="1" stop-color="rgb(90.022278%, 81.643677%, 59.547424%)" offset="0.101562"/><stop stop-opacity="1" stop-color="rgb(89.976501%, 81.52771%, 59.352112%)" offset="0.109375"/><stop stop-opacity="1" stop-color="rgb(89.930725%, 81.411743%, 59.155273%)" offset="0.117188"/><stop stop-opacity="1" stop-color="rgb(89.884949%, 81.29425%, 58.959961%)" offset="0.125"/><stop stop-opacity="1" stop-color="rgb(89.839172%, 81.178284%, 58.763123%)" offset="0.132812"/><stop stop-opacity="1" stop-color="rgb(89.79187%, 81.062317%, 58.56781%)" offset="0.140625"/><stop stop-opacity="1" stop-color="rgb(89.746094%, 80.944824%, 58.370972%)" offset="0.148438"/><stop stop-opacity="1" stop-color="rgb(89.700317%, 80.828857%, 58.175659%)" offset="0.15625"/><stop stop-opacity="1" stop-color="rgb(89.654541%, 80.712891%, 57.978821%)" offset="0.164063"/><stop stop-opacity="1" stop-color="rgb(89.608765%, 80.596924%, 57.783508%)" offset="0.171875"/><stop stop-opacity="1" stop-color="rgb(89.561462%, 80.479431%, 57.58667%)" offset="0.179688"/><stop stop-opacity="1" stop-color="rgb(89.515686%, 80.363464%, 57.391357%)" offset="0.1875"/><stop stop-opacity="1" stop-color="rgb(89.46991%, 80.247498%, 57.194519%)" offset="0.195313"/><stop stop-opacity="1" stop-color="rgb(89.424133%, 80.130005%, 56.999207%)" offset="0.203125"/><stop stop-opacity="1" stop-color="rgb(89.378357%, 80.014038%, 56.802368%)" offset="0.210938"/><stop stop-opacity="1" stop-color="rgb(89.331055%, 79.898071%, 56.60553%)" offset="0.21875"/><stop stop-opacity="1" stop-color="rgb(89.285278%, 79.782104%, 56.410217%)" offset="0.226562"/><stop stop-opacity="1" stop-color="rgb(89.239502%, 79.664612%, 56.213379%)" offset="0.234375"/><stop stop-opacity="1" stop-color="rgb(89.193726%, 79.548645%, 56.018066%)" offset="0.242188"/><stop stop-opacity="1" stop-color="rgb(89.146423%, 79.432678%, 55.821228%)" offset="0.25"/><stop stop-opacity="1" stop-color="rgb(89.100647%, 79.315186%, 55.625916%)" offset="0.257812"/><stop stop-opacity="1" stop-color="rgb(89.054871%, 79.199219%, 55.429077%)" offset="0.265625"/><stop stop-opacity="1" stop-color="rgb(89.009094%, 79.083252%, 55.233765%)" offset="0.273438"/><stop stop-opacity="1" stop-color="rgb(88.963318%, 78.967285%, 55.036926%)" offset="0.28125"/><stop stop-opacity="1" stop-color="rgb(88.916016%, 78.849792%, 54.841614%)" offset="0.289062"/><stop stop-opacity="1" stop-color="rgb(88.870239%, 78.733826%, 54.644775%)" offset="0.296875"/><stop stop-opacity="1" stop-color="rgb(88.824463%, 78.617859%, 54.449463%)" offset="0.304688"/><stop stop-opacity="1" stop-color="rgb(88.778687%, 78.500366%, 54.252625%)" offset="0.3125"/><stop stop-opacity="1" stop-color="rgb(88.73291%, 78.384399%, 54.057312%)" offset="0.320312"/><stop stop-opacity="1" stop-color="rgb(88.685608%, 78.268433%, 53.860474%)" offset="0.328125"/><stop stop-opacity="1" stop-color="rgb(88.639832%, 78.152466%, 53.665161%)" offset="0.335938"/><stop stop-opacity="1" stop-color="rgb(88.594055%, 78.034973%, 53.468323%)" offset="0.34375"/><stop stop-opacity="1" stop-color="rgb(88.548279%, 77.919006%, 53.27301%)" offset="0.351563"/><stop stop-opacity="1" stop-color="rgb(88.502502%, 77.80304%, 53.076172%)" offset="0.359375"/><stop stop-opacity="1" stop-color="rgb(88.4552%, 77.685547%, 52.880859%)" offset="0.367188"/><stop stop-opacity="1" stop-color="rgb(88.409424%, 77.56958%, 52.684021%)" offset="0.375"/><stop stop-opacity="1" stop-color="rgb(88.363647%, 77.453613%, 52.488708%)" offset="0.382813"/><stop stop-opacity="1" stop-color="rgb(88.317871%, 77.337646%, 52.29187%)" offset="0.390625"/><stop stop-opacity="1" stop-color="rgb(88.272095%, 77.220154%, 52.096558%)" offset="0.398438"/><stop stop-opacity="1" stop-color="rgb(88.224792%, 77.104187%, 51.899719%)" offset="0.40625"/><stop stop-opacity="1" stop-color="rgb(88.179016%, 76.98822%, 51.704407%)" offset="0.414062"/><stop stop-opacity="1" stop-color="rgb(88.13324%, 76.870728%, 51.507568%)" offset="0.421875"/><stop stop-opacity="1" stop-color="rgb(88.087463%, 76.754761%, 51.312256%)" offset="0.429687"/><stop stop-opacity="1" stop-color="rgb(88.040161%, 76.638794%, 51.115417%)" offset="0.4375"/><stop stop-opacity="1" stop-color="rgb(87.994385%, 76.522827%, 50.920105%)" offset="0.445312"/><stop stop-opacity="1" stop-color="rgb(87.948608%, 76.405334%, 50.723267%)" offset="0.453125"/><stop stop-opacity="1" stop-color="rgb(87.902832%, 76.289368%, 50.527954%)" offset="0.460937"/><stop stop-opacity="1" stop-color="rgb(87.857056%, 76.173401%, 50.331116%)" offset="0.46875"/><stop stop-opacity="1" stop-color="rgb(87.809753%, 76.055908%, 50.135803%)" offset="0.476562"/><stop stop-opacity="1" stop-color="rgb(87.763977%, 75.939941%, 49.938965%)" offset="0.484375"/><stop stop-opacity="1" stop-color="rgb(87.718201%, 75.823975%, 49.743652%)" offset="0.492188"/><stop stop-opacity="1" stop-color="rgb(87.672424%, 75.706482%, 49.546814%)" offset="0.5"/><stop stop-opacity="1" stop-color="rgb(87.626648%, 75.590515%, 49.351501%)" offset="0.507812"/><stop stop-opacity="1" stop-color="rgb(87.579346%, 75.474548%, 49.154663%)" offset="0.515625"/><stop stop-opacity="1" stop-color="rgb(87.533569%, 75.358582%, 48.959351%)" offset="0.523438"/><stop stop-opacity="1" stop-color="rgb(87.487793%, 75.241089%, 48.762512%)" offset="0.53125"/><stop stop-opacity="1" stop-color="rgb(87.442017%, 75.125122%, 48.565674%)" offset="0.539062"/><stop stop-opacity="1" stop-color="rgb(87.39624%, 75.009155%, 48.370361%)" offset="0.546875"/><stop stop-opacity="1" stop-color="rgb(87.348938%, 74.891663%, 48.173523%)" offset="0.554688"/><stop stop-opacity="1" stop-color="rgb(87.303162%, 74.775696%, 47.97821%)" offset="0.5625"/><stop stop-opacity="1" stop-color="rgb(87.257385%, 74.659729%, 47.781372%)" offset="0.570312"/><stop stop-opacity="1" stop-color="rgb(87.211609%, 74.543762%, 47.58606%)" offset="0.578125"/><stop stop-opacity="1" stop-color="rgb(87.165833%, 74.42627%, 47.389221%)" offset="0.585938"/><stop stop-opacity="1" stop-color="rgb(87.11853%, 74.310303%, 47.193909%)" offset="0.59375"/><stop stop-opacity="1" stop-color="rgb(87.072754%, 74.194336%, 46.99707%)" offset="0.601562"/><stop stop-opacity="1" stop-color="rgb(87.026978%, 74.076843%, 46.801758%)" offset="0.609375"/><stop stop-opacity="1" stop-color="rgb(86.981201%, 73.960876%, 46.604919%)" offset="0.617188"/><stop stop-opacity="1" stop-color="rgb(86.933899%, 73.84491%, 46.409607%)" offset="0.625"/><stop stop-opacity="1" stop-color="rgb(86.888123%, 73.728943%, 46.212769%)" offset="0.632812"/><stop stop-opacity="1" stop-color="rgb(86.842346%, 73.61145%, 46.017456%)" offset="0.640625"/><stop stop-opacity="1" stop-color="rgb(86.79657%, 73.495483%, 45.820618%)" offset="0.648438"/><stop stop-opacity="1" stop-color="rgb(86.750793%, 73.379517%, 45.625305%)" offset="0.65625"/><stop stop-opacity="1" stop-color="rgb(86.703491%, 73.262024%, 45.428467%)" offset="0.664062"/><stop stop-opacity="1" stop-color="rgb(86.657715%, 73.146057%, 45.233154%)" offset="0.671875"/><stop stop-opacity="1" stop-color="rgb(86.611938%, 73.03009%, 45.036316%)" offset="0.679687"/><stop stop-opacity="1" stop-color="rgb(86.566162%, 72.914124%, 44.841003%)" offset="0.6875"/><stop stop-opacity="1" stop-color="rgb(86.520386%, 72.796631%, 44.644165%)" offset="0.695312"/><stop stop-opacity="1" stop-color="rgb(86.473083%, 72.680664%, 44.448853%)" offset="0.703125"/><stop stop-opacity="1" stop-color="rgb(86.427307%, 72.564697%, 44.252014%)" offset="0.710938"/><stop stop-opacity="1" stop-color="rgb(86.381531%, 72.447205%, 44.056702%)" offset="0.71875"/><stop stop-opacity="1" stop-color="rgb(86.335754%, 72.331238%, 43.859863%)" offset="0.726563"/><stop stop-opacity="1" stop-color="rgb(86.289978%, 72.215271%, 43.664551%)" offset="0.734375"/><stop stop-opacity="1" stop-color="rgb(86.242676%, 72.099304%, 43.467712%)" offset="0.742188"/><stop stop-opacity="1" stop-color="rgb(86.196899%, 71.981812%, 43.2724%)" offset="0.75"/><stop stop-opacity="1" stop-color="rgb(86.151123%, 71.865845%, 43.075562%)" offset="0.757812"/><stop stop-opacity="1" stop-color="rgb(86.105347%, 71.749878%, 42.880249%)" offset="0.765625"/><stop stop-opacity="1" stop-color="rgb(86.05957%, 71.632385%, 42.683411%)" offset="0.773438"/><stop stop-opacity="1" stop-color="rgb(86.012268%, 71.516418%, 42.488098%)" offset="0.78125"/><stop stop-opacity="1" stop-color="rgb(85.966492%, 71.400452%, 42.29126%)" offset="0.789062"/><stop stop-opacity="1" stop-color="rgb(85.920715%, 71.284485%, 42.095947%)" offset="0.796875"/><stop stop-opacity="1" stop-color="rgb(85.874939%, 71.166992%, 41.899109%)" offset="0.804688"/><stop stop-opacity="1" stop-color="rgb(85.827637%, 71.051025%, 41.703796%)" offset="0.8125"/><stop stop-opacity="1" stop-color="rgb(85.78186%, 70.935059%, 41.506958%)" offset="0.820313"/><stop stop-opacity="1" stop-color="rgb(85.736084%, 70.817566%, 41.311646%)" offset="0.828125"/><stop stop-opacity="1" stop-color="rgb(85.690308%, 70.701599%, 41.114807%)" offset="0.835938"/><stop stop-opacity="1" stop-color="rgb(85.644531%, 70.585632%, 40.919495%)" offset="0.84375"/><stop stop-opacity="1" stop-color="rgb(85.597229%, 70.469666%, 40.722656%)" offset="0.851562"/><stop stop-opacity="1" stop-color="rgb(85.551453%, 70.352173%, 40.527344%)" offset="0.859375"/><stop stop-opacity="1" stop-color="rgb(85.505676%, 70.236206%, 40.330505%)" offset="0.867188"/><stop stop-opacity="1" stop-color="rgb(85.4599%, 70.120239%, 40.133667%)" offset="0.875"/><stop stop-opacity="1" stop-color="rgb(85.414124%, 70.002747%, 39.938354%)" offset="0.882813"/><stop stop-opacity="1" stop-color="rgb(85.366821%, 69.88678%, 39.741516%)" offset="0.890625"/><stop stop-opacity="1" stop-color="rgb(85.321045%, 69.770813%, 39.546204%)" offset="0.898438"/><stop stop-opacity="1" stop-color="rgb(85.275269%, 69.654846%, 39.349365%)" offset="0.90625"/><stop stop-opacity="1" stop-color="rgb(85.229492%, 69.537354%, 39.154053%)" offset="0.914062"/><stop stop-opacity="1" stop-color="rgb(85.183716%, 69.421387%, 38.957214%)" offset="0.921875"/><stop stop-opacity="1" stop-color="rgb(85.136414%, 69.30542%, 38.761902%)" offset="0.929688"/><stop stop-opacity="1" stop-color="rgb(85.090637%, 69.187927%, 38.565063%)" offset="0.9375"/><stop stop-opacity="1" stop-color="rgb(85.044861%, 69.07196%, 38.369751%)" offset="0.945313"/><stop stop-opacity="1" stop-color="rgb(84.999084%, 68.955994%, 38.172913%)" offset="0.953125"/><stop stop-opacity="1" stop-color="rgb(84.953308%, 68.838501%, 37.9776%)" offset="0.960938"/><stop stop-opacity="1" stop-color="rgb(84.906006%, 68.722534%, 37.780762%)" offset="0.96875"/><stop stop-opacity="1" stop-color="rgb(84.860229%, 68.606567%, 37.585449%)" offset="0.976562"/><stop stop-opacity="1" stop-color="rgb(84.814453%, 68.490601%, 37.388611%)" offset="0.984375"/><stop stop-opacity="1" stop-color="rgb(84.768677%, 68.373108%, 37.193298%)" offset="0.992188"/><stop stop-opacity="1" stop-color="rgb(84.721375%, 68.257141%, 36.99646%)" offset="1"/></linearGradient></defs><g clip-path="url(#25f17f7c98)"><g clip-path="url(#ccd30d32c1)"><path fill="url(#d180bae2c1)" d="M 112.632812 116.9375 L 112.632812 228.667969 L 262.359375 228.667969 L 262.359375 116.9375 Z M 112.632812 116.9375 " fill-rule="nonzero"/></g></g><g fill="#d8ae5e" fill-opacity="0.4"><g transform="translate(137.131254, 269.257291)"><g><path d="M 0.609375 -0.703125 L 1.3125 -0.703125 L 1.3125 -5.859375 L 0.609375 -5.859375 L 0.609375 -6.5625 L 2.8125 -6.5625 L 2.8125 -5.859375 L 2.125 -5.859375 L 2.125 -0.703125 L 2.8125 -0.703125 L 2.8125 0 L 0.609375 0 Z M 0.609375 -0.703125 "/></g></g></g><g fill="#d8ae5e" fill-opacity="0.4"><g transform="translate(141.701967, 269.257291)"><g><path d="M 2.125 -0.703125 L 2.734375 -0.703125 L 2.734375 0 L 0.703125 0 L 0.703125 -0.703125 L 1.3125 -0.703125 L 1.3125 -5.859375 L 0.703125 -5.859375 L 0.703125 -6.5625 L 2.515625 -6.5625 L 5.078125 -0.984375 L 5.078125 -5.859375 L 4.46875 -5.859375 L 4.46875 -6.5625 L 6.5 -6.5625 L 6.5 -5.859375 L 5.875 -5.859375 L 5.875 0 L 4.671875 0 L 2.125 -5.5625 Z M 2.125 -0.703125 "/></g></g></g><g fill="#d8ae5e" fill-opacity="0.4"><g transform="translate(149.942601, 269.257291)"><g><path d="M 4.546875 -4.5 L 3.828125 -4.5 L 3.828125 -5.265625 L 3.296875 -5.8125 L 1.953125 -5.8125 L 1.5 -5.34375 L 1.5 -4.140625 L 1.9375 -3.703125 L 3.75 -3.703125 L 4.640625 -2.78125 L 4.640625 -0.96875 L 3.734375 0 L 1.515625 0 L 0.609375 -0.96875 L 0.609375 -2.0625 L 1.34375 -2.0625 L 1.34375 -1.296875 L 1.875 -0.75 L 3.390625 -0.75 L 3.828125 -1.21875 L 3.828125 -2.515625 L 3.40625 -2.953125 L 1.59375 -2.953125 L 0.703125 -3.890625 L 0.703125 -5.59375 L 1.609375 -6.5625 L 3.640625 -6.5625 L 4.546875 -5.59375 Z M 4.546875 -4.5 "/></g></g></g><g fill="#d8ae5e" fill-opacity="0.4"><g transform="translate(156.330801, 269.257291)"><g><path d="M 0.703125 -6.5625 L 4.859375 -6.5625 L 4.859375 -4.84375 L 4.171875 -4.84375 L 4.171875 -5.859375 L 2.125 -5.859375 L 2.125 -3.625 L 4.171875 -3.625 L 4.171875 -2.9375 L 2.125 -2.9375 L 2.125 -0.703125 L 4.171875 -0.703125 L 4.171875 -1.71875 L 4.859375 -1.71875 L 4.859375 0 L 0.703125 0 L 0.703125 -0.703125 L 1.3125 -0.703125 L 1.3125 -5.859375 L 0.703125 -5.859375 Z M 0.703125 -6.5625 "/></g></g></g><g fill="#d8ae5e" fill-opacity="0.4"><g transform="translate(163.033562, 269.257291)"><g><path d="M 4.109375 -2.671875 L 2.90625 -2.671875 L 2.90625 -3.375 L 4.8125 -3.375 L 4.8125 -0.96875 L 3.90625 0 L 1.609375 0 L 0.703125 -0.96875 L 0.703125 -5.59375 L 1.609375 -6.5625 L 3.90625 -6.5625 L 4.8125 -5.59375 L 4.8125 -4.5 L 4.109375 -4.5 L 4.109375 -5.234375 L 3.5625 -5.8125 L 1.953125 -5.8125 L 1.5 -5.34375 L 1.5 -1.21875 L 1.953125 -0.75 L 3.546875 -0.75 L 4.109375 -1.328125 Z M 4.109375 -2.671875 "/></g></g></g><g fill="#d8ae5e" fill-opacity="0.4"><g transform="translate(169.596516, 269.257291)"><g><path d="M 2.125 -0.703125 L 2.734375 -0.703125 L 2.734375 0 L 0.703125 0 L 0.703125 -0.703125 L 1.3125 -0.703125 L 1.3125 -5.859375 L 0.703125 -5.859375 L 0.703125 -6.5625 L 2.515625 -6.5625 L 5.078125 -0.984375 L 5.078125 -5.859375 L 4.46875 -5.859375 L 4.46875 -6.5625 L 6.5 -6.5625 L 6.5 -5.859375 L 5.875 -5.859375 L 5.875 0 L 4.671875 0 L 2.125 -5.5625 Z M 2.125 -0.703125 "/></g></g></g><g fill="#d8ae5e" fill-opacity="0.4"><g transform="translate(177.837149, 269.257291)"><g><path d="M 1.703125 -6.5625 L 4.046875 -6.5625 L 4.046875 -5.859375 L 3.640625 -5.859375 L 5.1875 -0.703125 L 5.625 -0.703125 L 5.625 0 L 3.765625 0 L 3.765625 -0.703125 L 4.375 -0.703125 L 3.96875 -2.046875 L 1.78125 -2.046875 L 1.375 -0.703125 L 1.984375 -0.703125 L 1.984375 0 L 0.125 0 L 0.125 -0.703125 L 0.5625 -0.703125 L 2.109375 -5.859375 L 1.703125 -5.859375 Z M 2.875 -5.734375 L 1.984375 -2.75 L 3.765625 -2.75 Z M 2.875 -5.734375 "/></g></g></g><g fill="#d8ae5e" fill-opacity="0.4"><g transform="translate(184.723403, 269.257291)"><g/></g></g><g fill="#d8ae5e" fill-opacity="0.4"><g transform="translate(188.927123, 269.257291)"><g><path d="M 0.703125 -6.5625 L 4.859375 -6.5625 L 4.859375 -4.84375 L 4.171875 -4.84375 L 4.171875 -5.859375 L 2.125 -5.859375 L 2.125 -3.625 L 4.171875 -3.625 L 4.171875 -2.9375 L 2.125 -2.9375 L 2.125 -0.703125 L 4.171875 -0.703125 L 4.171875 -1.71875 L 4.859375 -1.71875 L 4.859375 0 L 0.703125 0 L 0.703125 -0.703125 L 1.3125 -0.703125 L 1.3125 -5.859375 L 0.703125 -5.859375 Z M 0.703125 -6.5625 "/></g></g></g><g fill="#d8ae5e" fill-opacity="0.4"><g transform="translate(195.629886, 269.257291)"><g/></g></g><g fill="#d8ae5e" fill-opacity="0.4"><g transform="translate(199.833606, 269.257291)"><g><path d="M 0.609375 -0.703125 L 1.3125 -0.703125 L 1.3125 -5.859375 L 0.609375 -5.859375 L 0.609375 -6.5625 L 2.8125 -6.5625 L 2.8125 -5.859375 L 2.125 -5.859375 L 2.125 -0.703125 L 2.8125 -0.703125 L 2.8125 0 L 0.609375 0 Z M 0.609375 -0.703125 "/></g></g></g><g fill="#d8ae5e" fill-opacity="0.4"><g transform="translate(204.404322, 269.257291)"><g><path d="M 4.546875 -4.5 L 3.828125 -4.5 L 3.828125 -5.265625 L 3.296875 -5.8125 L 1.953125 -5.8125 L 1.5 -5.34375 L 1.5 -4.140625 L 1.9375 -3.703125 L 3.75 -3.703125 L 4.640625 -2.78125 L 4.640625 -0.96875 L 3.734375 0 L 1.515625 0 L 0.609375 -0.96875 L 0.609375 -2.0625 L 1.34375 -2.0625 L 1.34375 -1.296875 L 1.875 -0.75 L 3.390625 -0.75 L 3.828125 -1.21875 L 3.828125 -2.515625 L 3.40625 -2.953125 L 1.59375 -2.953125 L 0.703125 -3.890625 L 0.703125 -5.59375 L 1.609375 -6.5625 L 3.640625 -6.5625 L 4.546875 -5.59375 Z M 4.546875 -4.5 "/></g></g></g><g fill="#d8ae5e" fill-opacity="0.4"><g transform="translate(210.792523, 269.257291)"><g><path d="M 0.703125 -6.5625 L 4.203125 -6.5625 L 5.109375 -5.59375 L 5.109375 -3.59375 L 4.203125 -2.625 L 2.125 -2.625 L 2.125 -0.703125 L 2.8125 -0.703125 L 2.8125 0 L 0.703125 0 L 0.703125 -0.703125 L 1.3125 -0.703125 L 1.3125 -5.859375 L 0.703125 -5.859375 Z M 2.125 -5.8125 L 2.125 -3.375 L 3.84375 -3.375 L 4.359375 -3.890625 L 4.359375 -5.296875 L 3.859375 -5.8125 Z M 2.125 -5.8125 "/></g></g></g><g fill="#d8ae5e" fill-opacity="0.4"><g transform="translate(217.390429, 269.257291)"><g><path d="M 0.609375 -0.703125 L 1.3125 -0.703125 L 1.3125 -5.859375 L 0.609375 -5.859375 L 0.609375 -6.5625 L 2.8125 -6.5625 L 2.8125 -5.859375 L 2.125 -5.859375 L 2.125 -0.703125 L 2.8125 -0.703125 L 2.8125 0 L 0.609375 0 Z M 0.609375 -0.703125 "/></g></g></g><g fill="#d8ae5e" fill-opacity="0.4"><g transform="translate(221.961145, 269.257291)"><g><path d="M 0.703125 -6.5625 L 4.203125 -6.5625 L 5.109375 -5.59375 L 5.109375 -3.671875 L 4.203125 -2.71875 L 5.140625 -0.703125 L 5.59375 -0.703125 L 5.59375 0 L 3.953125 0 L 3.953125 -0.703125 L 4.28125 -0.703125 L 3.34375 -2.71875 L 2.125 -2.71875 L 2.125 -0.703125 L 2.640625 -0.703125 L 2.640625 0 L 0.703125 0 L 0.703125 -0.703125 L 1.3125 -0.703125 L 1.3125 -5.859375 L 0.703125 -5.859375 Z M 2.125 -5.8125 L 2.125 -3.46875 L 3.84375 -3.46875 L 4.359375 -3.984375 L 4.359375 -5.296875 L 3.859375 -5.8125 Z M 2.125 -5.8125 "/></g></g></g><g fill="#d8ae5e" fill-opacity="0.4"><g transform="translate(229.214392, 269.257291)"><g><path d="M 1.703125 -6.5625 L 4.046875 -6.5625 L 4.046875 -5.859375 L 3.640625 -5.859375 L 5.1875 -0.703125 L 5.625 -0.703125 L 5.625 0 L 3.765625 0 L 3.765625 -0.703125 L 4.375 -0.703125 L 3.96875 -2.046875 L 1.78125 -2.046875 L 1.375 -0.703125 L 1.984375 -0.703125 L 1.984375 0 L 0.125 0 L 0.125 -0.703125 L 0.5625 -0.703125 L 2.109375 -5.859375 L 1.703125 -5.859375 Z M 2.875 -5.734375 L 1.984375 -2.75 L 3.765625 -2.75 Z M 2.875 -5.734375 "/></g></g></g><g fill="#d8ae5e" fill-opacity="0.4"><g transform="translate(236.100648, 269.257291)"><g><path d="M 0.4375 -1.046875 L 1.3125 -1.046875 L 1.3125 0 L 0.4375 0 Z M 0.4375 -1.046875 "/></g></g></g><g fill="#d8ae5e" fill-opacity="1"><g transform="translate(137.131254, 269.257291)"><g><path d="M 0.609375 -0.703125 L 1.3125 -0.703125 L 1.3125 -5.859375 L 0.609375 -5.859375 L 0.609375 -6.5625 L 2.8125 -6.5625 L 2.8125 -5.859375 L 2.125 -5.859375 L 2.125 -0.703125 L 2.8125 -0.703125 L 2.8125 0 L 0.609375 0 Z M 0.609375 -0.703125 "/></g></g></g><g fill="#d8ae5e" fill-opacity="1"><g transform="translate(141.701967, 269.257291)"><g><path d="M 2.125 -0.703125 L 2.734375 -0.703125 L 2.734375 0 L 0.703125 0 L 0.703125 -0.703125 L 1.3125 -0.703125 L 1.3125 -5.859375 L 0.703125 -5.859375 L 0.703125 -6.5625 L 2.515625 -6.5625 L 5.078125 -0.984375 L 5.078125 -5.859375 L 4.46875 -5.859375 L 4.46875 -6.5625 L 6.5 -6.5625 L 6.5 -5.859375 L 5.875 -5.859375 L 5.875 0 L 4.671875 0 L 2.125 -5.5625 Z M 2.125 -0.703125 "/></g></g></g><g fill="#d8ae5e" fill-opacity="1"><g transform="translate(149.942601, 269.257291)"><g><path d="M 4.546875 -4.5 L 3.828125 -4.5 L 3.828125 -5.265625 L 3.296875 -5.8125 L 1.953125 -5.8125 L 1.5 -5.34375 L 1.5 -4.140625 L 1.9375 -3.703125 L 3.75 -3.703125 L 4.640625 -2.78125 L 4.640625 -0.96875 L 3.734375 0 L 1.515625 0 L 0.609375 -0.96875 L 0.609375 -2.0625 L 1.34375 -2.0625 L 1.34375 -1.296875 L 1.875 -0.75 L 3.390625 -0.75 L 3.828125 -1.21875 L 3.828125 -2.515625 L 3.40625 -2.953125 L 1.59375 -2.953125 L 0.703125 -3.890625 L 0.703125 -5.59375 L 1.609375 -6.5625 L 3.640625 -6.5625 L 4.546875 -5.59375 Z M 4.546875 -4.5 "/></g></g></g><g fill="#d8ae5e" fill-opacity="1"><g transform="translate(156.330801, 269.257291)"><g><path d="M 0.703125 -6.5625 L 4.859375 -6.5625 L 4.859375 -4.84375 L 4.171875 -4.84375 L 4.171875 -5.859375 L 2.125 -5.859375 L 2.125 -3.625 L 4.171875 -3.625 L 4.171875 -2.9375 L 2.125 -2.9375 L 2.125 -0.703125 L 4.171875 -0.703125 L 4.171875 -1.71875 L 4.859375 -1.71875 L 4.859375 0 L 0.703125 0 L 0.703125 -0.703125 L 1.3125 -0.703125 L 1.3125 -5.859375 L 0.703125 -5.859375 Z M 0.703125 -6.5625 "/></g></g></g><g fill="#d8ae5e" fill-opacity="1"><g transform="translate(163.033562, 269.257291)"><g><path d="M 4.109375 -2.671875 L 2.90625 -2.671875 L 2.90625 -3.375 L 4.8125 -3.375 L 4.8125 -0.96875 L 3.90625 0 L 1.609375 0 L 0.703125 -0.96875 L 0.703125 -5.59375 L 1.609375 -6.5625 L 3.90625 -6.5625 L 4.8125 -5.59375 L 4.8125 -4.5 L 4.109375 -4.5 L 4.109375 -5.234375 L 3.5625 -5.8125 L 1.953125 -5.8125 L 1.5 -5.34375 L 1.5 -1.21875 L 1.953125 -0.75 L 3.546875 -0.75 L 4.109375 -1.328125 Z M 4.109375 -2.671875 "/></g></g></g><g fill="#d8ae5e" fill-opacity="1"><g transform="translate(169.596516, 269.257291)"><g><path d="M 2.125 -0.703125 L 2.734375 -0.703125 L 2.734375 0 L 0.703125 0 L 0.703125 -0.703125 L 1.3125 -0.703125 L 1.3125 -5.859375 L 0.703125 -5.859375 L 0.703125 -6.5625 L 2.515625 -6.5625 L 5.078125 -0.984375 L 5.078125 -5.859375 L 4.46875 -5.859375 L 4.46875 -6.5625 L 6.5 -6.5625 L 6.5 -5.859375 L 5.875 -5.859375 L 5.875 0 L 4.671875 0 L 2.125 -5.5625 Z M 2.125 -0.703125 "/></g></g></g><g fill="#d8ae5e" fill-opacity="1"><g transform="translate(177.837149, 269.257291)"><g><path d="M 1.703125 -6.5625 L 4.046875 -6.5625 L 4.046875 -5.859375 L 3.640625 -5.859375 L 5.1875 -0.703125 L 5.625 -0.703125 L 5.625 0 L 3.765625 0 L 3.765625 -0.703125 L 4.375 -0.703125 L 3.96875 -2.046875 L 1.78125 -2.046875 L 1.375 -0.703125 L 1.984375 -0.703125 L 1.984375 0 L 0.125 0 L 0.125 -0.703125 L 0.5625 -0.703125 L 2.109375 -5.859375 L 1.703125 -5.859375 Z M 2.875 -5.734375 L 1.984375 -2.75 L 3.765625 -2.75 Z M 2.875 -5.734375 "/></g></g></g><g fill="#d8ae5e" fill-opacity="1"><g transform="translate(184.723403, 269.257291)"><g/></g></g><g fill="#d8ae5e" fill-opacity="1"><g transform="translate(188.927123, 269.257291)"><g><path d="M 0.703125 -6.5625 L 4.859375 -6.5625 L 4.859375 -4.84375 L 4.171875 -4.84375 L 4.171875 -5.859375 L 2.125 -5.859375 L 2.125 -3.625 L 4.171875 -3.625 L 4.171875 -2.9375 L 2.125 -2.9375 L 2.125 -0.703125 L 4.171875 -0.703125 L 4.171875 -1.71875 L 4.859375 -1.71875 L 4.859375 0 L 0.703125 0 L 0.703125 -0.703125 L 1.3125 -0.703125 L 1.3125 -5.859375 L 0.703125 -5.859375 Z M 0.703125 -6.5625 "/></g></g></g><g fill="#d8ae5e" fill-opacity="1"><g transform="translate(195.629886, 269.257291)"><g/></g></g><g fill="#d8ae5e" fill-opacity="1"><g transform="translate(199.833606, 269.257291)"><g><path d="M 0.609375 -0.703125 L 1.3125 -0.703125 L 1.3125 -5.859375 L 0.609375 -5.859375 L 0.609375 -6.5625 L 2.8125 -6.5625 L 2.8125 -5.859375 L 2.125 -5.859375 L 2.125 -0.703125 L 2.8125 -0.703125 L 2.8125 0 L 0.609375 0 Z M 0.609375 -0.703125 "/></g></g></g><g fill="#d8ae5e" fill-opacity="1"><g transform="translate(204.404322, 269.257291)"><g><path d="M 4.546875 -4.5 L 3.828125 -4.5 L 3.828125 -5.265625 L 3.296875 -5.8125 L 1.953125 -5.8125 L 1.5 -5.34375 L 1.5 -4.140625 L 1.9375 -3.703125 L 3.75 -3.703125 L 4.640625 -2.78125 L 4.640625 -0.96875 L 3.734375 0 L 1.515625 0 L 0.609375 -0.96875 L 0.609375 -2.0625 L 1.34375 -2.0625 L 1.34375 -1.296875 L 1.875 -0.75 L 3.390625 -0.75 L 3.828125 -1.21875 L 3.828125 -2.515625 L 3.40625 -2.953125 L 1.59375 -2.953125 L 0.703125 -3.890625 L 0.703125 -5.59375 L 1.609375 -6.5625 L 3.640625 -6.5625 L 4.546875 -5.59375 Z M 4.546875 -4.5 "/></g></g></g><g fill="#d8ae5e" fill-opacity="1"><g transform="translate(210.792523, 269.257291)"><g><path d="M 0.703125 -6.5625 L 4.203125 -6.5625 L 5.109375 -5.59375 L 5.109375 -3.59375 L 4.203125 -2.625 L 2.125 -2.625 L 2.125 -0.703125 L 2.8125 -0.703125 L 2.8125 0 L 0.703125 0 L 0.703125 -0.703125 L 1.3125 -0.703125 L 1.3125 -5.859375 L 0.703125 -5.859375 Z M 2.125 -5.8125 L 2.125 -3.375 L 3.84375 -3.375 L 4.359375 -3.890625 L 4.359375 -5.296875 L 3.859375 -5.8125 Z M 2.125 -5.8125 "/></g></g></g><g fill="#d8ae5e" fill-opacity="1"><g transform="translate(217.390429, 269.257291)"><g><path d="M 0.609375 -0.703125 L 1.3125 -0.703125 L 1.3125 -5.859375 L 0.609375 -5.859375 L 0.609375 -6.5625 L 2.8125 -6.5625 L 2.8125 -5.859375 L 2.125 -5.859375 L 2.125 -0.703125 L 2.8125 -0.703125 L 2.8125 0 L 0.609375 0 Z M 0.609375 -0.703125 "/></g></g></g><g fill="#d8ae5e" fill-opacity="1"><g transform="translate(221.961145, 269.257291)"><g><path d="M 0.703125 -6.5625 L 4.203125 -6.5625 L 5.109375 -5.59375 L 5.109375 -3.671875 L 4.203125 -2.71875 L 5.140625 -0.703125 L 5.59375 -0.703125 L 5.59375 0 L 3.953125 0 L 3.953125 -0.703125 L 4.28125 -0.703125 L 3.34375 -2.71875 L 2.125 -2.71875 L 2.125 -0.703125 L 2.640625 -0.703125 L 2.640625 0 L 0.703125 0 L 0.703125 -0.703125 L 1.3125 -0.703125 L 1.3125 -5.859375 L 0.703125 -5.859375 Z M 2.125 -5.8125 L 2.125 -3.46875 L 3.84375 -3.46875 L 4.359375 -3.984375 L 4.359375 -5.296875 L 3.859375 -5.8125 Z M 2.125 -5.8125 "/></g></g></g><g fill="#d8ae5e" fill-opacity="1"><g transform="translate(229.214392, 269.257291)"><g><path d="M 1.703125 -6.5625 L 4.046875 -6.5625 L 4.046875 -5.859375 L 3.640625 -5.859375 L 5.1875 -0.703125 L 5.625 -0.703125 L 5.625 0 L 3.765625 0 L 3.765625 -0.703125 L 4.375 -0.703125 L 3.96875 -2.046875 L 1.78125 -2.046875 L 1.375 -0.703125 L 1.984375 -0.703125 L 1.984375 0 L 0.125 0 L 0.125 -0.703125 L 0.5625 -0.703125 L 2.109375 -5.859375 L 1.703125 -5.859375 Z M 2.875 -5.734375 L 1.984375 -2.75 L 3.765625 -2.75 Z M 2.875 -5.734375 "/></g></g></g><g fill="#d8ae5e" fill-opacity="1"><g transform="translate(236.100648, 269.257291)"><g><path d="M 0.4375 -1.046875 L 1.3125 -1.046875 L 1.3125 0 L 0.4375 0 Z M 0.4375 -1.046875 "/></g></g></g><g fill="#d8ae5e" fill-opacity="0.4"><g transform="translate(99.334442, 254.370319)"><g><path d="M 13.203125 -6.78125 L 15.515625 -6.78125 L 15.515625 -3.15625 L 12.515625 0 L 5.28125 0 L 2.296875 -3.15625 L 2.296875 -18.375 L 5.28125 -21.53125 L 12.515625 -21.53125 L 15.515625 -18.375 L 15.515625 -14.765625 L 13.203125 -14.765625 L 13.203125 -17.203125 L 11.40625 -19.0625 L 6.4375 -19.0625 L 4.9375 -17.546875 L 4.9375 -3.984375 L 6.40625 -2.46875 L 11.375 -2.46875 L 13.203125 -4.34375 Z M 13.203125 -6.78125 "/></g></g></g><g fill="#d8ae5e" fill-opacity="0.4"><g transform="translate(116.561376, 254.370319)"><g><path d="M 5.28125 0 L 2.296875 -3.15625 L 2.296875 -18.375 L 5.28125 -21.53125 L 13.390625 -21.53125 L 16.375 -18.375 L 16.375 -3.15625 L 13.390625 0 Z M 6.40625 -2.46875 L 12.234375 -2.46875 L 13.734375 -3.984375 L 13.734375 -17.546875 L 12.265625 -19.0625 L 6.4375 -19.0625 L 4.9375 -17.546875 L 4.9375 -3.984375 Z M 6.40625 -2.46875 "/></g></g></g><g fill="#d8ae5e" fill-opacity="0.4"><g transform="translate(135.223879, 254.370319)"><g><path d="M 12.859375 -21.53125 L 19.234375 -21.53125 L 19.234375 -19.234375 L 17.515625 -19.234375 L 17.515625 -3.15625 L 14.53125 0 L 6.71875 0 L 3.734375 -3.15625 L 3.734375 -19.234375 L 2.015625 -19.234375 L 2.015625 -21.53125 L 8.390625 -21.53125 L 8.390625 -19.234375 L 6.375 -19.234375 L 6.375 -3.984375 L 7.84375 -2.46875 L 13.390625 -2.46875 L 14.875 -3.984375 L 14.875 -19.234375 L 12.859375 -19.234375 Z M 12.859375 -21.53125 "/></g></g></g><g fill="#d8ae5e" fill-opacity="0.4"><g transform="translate(156.470421, 254.370319)"><g><path d="M 2.296875 -21.53125 L 13.78125 -21.53125 L 16.765625 -18.375 L 16.765625 -12.0625 L 13.78125 -8.90625 L 16.859375 -2.296875 L 18.34375 -2.296875 L 18.34375 0 L 12.953125 0 L 12.953125 -2.296875 L 14.078125 -2.296875 L 11 -8.90625 L 6.953125 -8.90625 L 6.953125 -2.296875 L 8.671875 -2.296875 L 8.671875 0 L 2.296875 0 L 2.296875 -2.296875 L 4.3125 -2.296875 L 4.3125 -19.234375 L 2.296875 -19.234375 Z M 6.953125 -19.0625 L 6.953125 -11.375 L 12.640625 -11.375 L 14.296875 -13.0625 L 14.296875 -17.375 L 12.671875 -19.0625 Z M 6.953125 -19.0625 "/></g></g></g><g fill="#d8ae5e" fill-opacity="0.4"><g transform="translate(176.539796, 254.370319)"><g><path d="M 14.9375 -14.765625 L 12.546875 -14.765625 L 12.546875 -17.28125 L 10.828125 -19.0625 L 6.4375 -19.0625 L 4.9375 -17.546875 L 4.9375 -13.578125 L 6.34375 -12.140625 L 12.328125 -12.140625 L 15.21875 -9.109375 L 15.21875 -3.15625 L 12.234375 0 L 5 0 L 2.015625 -3.15625 L 2.015625 -6.78125 L 4.390625 -6.78125 L 4.390625 -4.25 L 6.140625 -2.46875 L 11.109375 -2.46875 L 12.578125 -3.984375 L 12.578125 -8.265625 L 11.203125 -9.671875 L 5.234375 -9.671875 L 2.296875 -12.75 L 2.296875 -18.375 L 5.28125 -21.53125 L 11.953125 -21.53125 L 14.9375 -18.375 Z M 14.9375 -14.765625 "/></g></g></g><g fill="#d8ae5e" fill-opacity="0.4"><g transform="translate(193.766731, 254.370319)"><g><path d="M 2.296875 -21.53125 L 15.96875 -21.53125 L 15.96875 -15.90625 L 13.671875 -15.90625 L 13.671875 -19.234375 L 6.953125 -19.234375 L 6.953125 -11.921875 L 13.671875 -11.921875 L 13.671875 -9.625 L 6.953125 -9.625 L 6.953125 -2.296875 L 13.671875 -2.296875 L 13.671875 -5.625 L 15.96875 -5.625 L 15.96875 0 L 2.296875 0 L 2.296875 -2.296875 L 4.3125 -2.296875 L 4.3125 -19.234375 L 2.296875 -19.234375 Z M 2.296875 -21.53125 "/></g></g></g><g fill="#d8ae5e" fill-opacity="0.4"><g transform="translate(212.027275, 254.370319)"><g><path d="M 2.296875 -21.53125 L 8.953125 -21.53125 L 8.953125 -19.234375 L 6.953125 -19.234375 L 6.953125 -11.921875 L 15.796875 -11.921875 L 15.796875 -19.234375 L 13.78125 -19.234375 L 13.78125 -21.53125 L 20.453125 -21.53125 L 20.453125 -19.234375 L 18.4375 -19.234375 L 18.4375 -2.296875 L 20.453125 -2.296875 L 20.453125 0 L 13.78125 0 L 13.78125 -2.296875 L 15.796875 -2.296875 L 15.796875 -9.625 L 6.953125 -9.625 L 6.953125 -2.296875 L 8.953125 -2.296875 L 8.953125 0 L 2.296875 0 L 2.296875 -2.296875 L 4.3125 -2.296875 L 4.3125 -19.234375 L 2.296875 -19.234375 Z M 2.296875 -21.53125 "/></g></g></g><g fill="#d8ae5e" fill-opacity="0.4"><g transform="translate(234.766827, 254.370319)"><g><path d="M 12.859375 -21.53125 L 19.234375 -21.53125 L 19.234375 -19.234375 L 17.515625 -19.234375 L 17.515625 -3.15625 L 14.53125 0 L 6.71875 0 L 3.734375 -3.15625 L 3.734375 -19.234375 L 2.015625 -19.234375 L 2.015625 -21.53125 L 8.390625 -21.53125 L 8.390625 -19.234375 L 6.375 -19.234375 L 6.375 -3.984375 L 7.84375 -2.46875 L 13.390625 -2.46875 L 14.875 -3.984375 L 14.875 -19.234375 L 12.859375 -19.234375 Z M 12.859375 -21.53125 "/></g></g></g><g fill="#d8ae5e" fill-opacity="0.4"><g transform="translate(256.013369, 254.370319)"><g><path d="M 2.296875 -21.53125 L 13.78125 -21.53125 L 16.765625 -18.375 L 16.765625 -13.203125 L 15.21875 -11.578125 L 17.34375 -9.359375 L 17.34375 -3.15625 L 14.359375 0 L 2.296875 0 L 2.296875 -2.296875 L 4.3125 -2.296875 L 4.3125 -19.234375 L 2.296875 -19.234375 Z M 6.953125 -10.21875 L 6.953125 -2.46875 L 13.203125 -2.46875 L 14.875 -4.171875 L 14.875 -8.359375 L 13.0625 -10.21875 Z M 6.953125 -19.0625 L 6.953125 -12.515625 L 12.640625 -12.515625 L 14.296875 -14.21875 L 14.296875 -17.375 L 12.671875 -19.0625 Z M 6.953125 -19.0625 "/></g></g></g><g fill="#d8ae5e" fill-opacity="1"><g transform="translate(99.334442, 254.370319)"><g><path d="M 13.203125 -6.78125 L 15.515625 -6.78125 L 15.515625 -3.15625 L 12.515625 0 L 5.28125 0 L 2.296875 -3.15625 L 2.296875 -18.375 L 5.28125 -21.53125 L 12.515625 -21.53125 L 15.515625 -18.375 L 15.515625 -14.765625 L 13.203125 -14.765625 L 13.203125 -17.203125 L 11.40625 -19.0625 L 6.4375 -19.0625 L 4.9375 -17.546875 L 4.9375 -3.984375 L 6.40625 -2.46875 L 11.375 -2.46875 L 13.203125 -4.34375 Z M 13.203125 -6.78125 "/></g></g></g><g fill="#d8ae5e" fill-opacity="1"><g transform="translate(116.561376, 254.370319)"><g><path d="M 5.28125 0 L 2.296875 -3.15625 L 2.296875 -18.375 L 5.28125 -21.53125 L 13.390625 -21.53125 L 16.375 -18.375 L 16.375 -3.15625 L 13.390625 0 Z M 6.40625 -2.46875 L 12.234375 -2.46875 L 13.734375 -3.984375 L 13.734375 -17.546875 L 12.265625 -19.0625 L 6.4375 -19.0625 L 4.9375 -17.546875 L 4.9375 -3.984375 Z M 6.40625 -2.46875 "/></g></g></g><g fill="#d8ae5e" fill-opacity="1"><g transform="translate(135.223879, 254.370319)"><g><path d="M 12.859375 -21.53125 L 19.234375 -21.53125 L 19.234375 -19.234375 L 17.515625 -19.234375 L 17.515625 -3.15625 L 14.53125 0 L 6.71875 0 L 3.734375 -3.15625 L 3.734375 -19.234375 L 2.015625 -19.234375 L 2.015625 -21.53125 L 8.390625 -21.53125 L 8.390625 -19.234375 L 6.375 -19.234375 L 6.375 -3.984375 L 7.84375 -2.46875 L 13.390625 -2.46875 L 14.875 -3.984375 L 14.875 -19.234375 L 12.859375 -19.234375 Z M 12.859375 -21.53125 "/></g></g></g><g fill="#d8ae5e" fill-opacity="1"><g transform="translate(156.470421, 254.370319)"><g><path d="M 2.296875 -21.53125 L 13.78125 -21.53125 L 16.765625 -18.375 L 16.765625 -12.0625 L 13.78125 -8.90625 L 16.859375 -2.296875 L 18.34375 -2.296875 L 18.34375 0 L 12.953125 0 L 12.953125 -2.296875 L 14.078125 -2.296875 L 11 -8.90625 L 6.953125 -8.90625 L 6.953125 -2.296875 L 8.671875 -2.296875 L 8.671875 0 L 2.296875 0 L 2.296875 -2.296875 L 4.3125 -2.296875 L 4.3125 -19.234375 L 2.296875 -19.234375 Z M 6.953125 -19.0625 L 6.953125 -11.375 L 12.640625 -11.375 L 14.296875 -13.0625 L 14.296875 -17.375 L 12.671875 -19.0625 Z M 6.953125 -19.0625 "/></g></g></g><g fill="#d8ae5e" fill-opacity="1"><g transform="translate(176.539796, 254.370319)"><g><path d="M 14.9375 -14.765625 L 12.546875 -14.765625 L 12.546875 -17.28125 L 10.828125 -19.0625 L 6.4375 -19.0625 L 4.9375 -17.546875 L 4.9375 -13.578125 L 6.34375 -12.140625 L 12.328125 -12.140625 L 15.21875 -9.109375 L 15.21875 -3.15625 L 12.234375 0 L 5 0 L 2.015625 -3.15625 L 2.015625 -6.78125 L 4.390625 -6.78125 L 4.390625 -4.25 L 6.140625 -2.46875 L 11.109375 -2.46875 L 12.578125 -3.984375 L 12.578125 -8.265625 L 11.203125 -9.671875 L 5.234375 -9.671875 L 2.296875 -12.75 L 2.296875 -18.375 L 5.28125 -21.53125 L 11.953125 -21.53125 L 14.9375 -18.375 Z M 14.9375 -14.765625 "/></g></g></g><g fill="#d8ae5e" fill-opacity="1"><g transform="translate(193.766731, 254.370319)"><g><path d="M 2.296875 -21.53125 L 15.96875 -21.53125 L 15.96875 -15.90625 L 13.671875 -15.90625 L 13.671875 -19.234375 L 6.953125 -19.234375 L 6.953125 -11.921875 L 13.671875 -11.921875 L 13.671875 -9.625 L 6.953125 -9.625 L 6.953125 -2.296875 L 13.671875 -2.296875 L 13.671875 -5.625 L 15.96875 -5.625 L 15.96875 0 L 2.296875 0 L 2.296875 -2.296875 L 4.3125 -2.296875 L 4.3125 -19.234375 L 2.296875 -19.234375 Z M 2.296875 -21.53125 "/></g></g></g><g fill="#d8ae5e" fill-opacity="1"><g transform="translate(212.027275, 254.370319)"><g><path d="M 2.296875 -21.53125 L 8.953125 -21.53125 L 8.953125 -19.234375 L 6.953125 -19.234375 L 6.953125 -11.921875 L 15.796875 -11.921875 L 15.796875 -19.234375 L 13.78125 -19.234375 L 13.78125 -21.53125 L 20.453125 -21.53125 L 20.453125 -19.234375 L 18.4375 -19.234375 L 18.4375 -2.296875 L 20.453125 -2.296875 L 20.453125 0 L 13.78125 0 L 13.78125 -2.296875 L 15.796875 -2.296875 L 15.796875 -9.625 L 6.953125 -9.625 L 6.953125 -2.296875 L 8.953125 -2.296875 L 8.953125 0 L 2.296875 0 L 2.296875 -2.296875 L 4.3125 -2.296875 L 4.3125 -19.234375 L 2.296875 -19.234375 Z M 2.296875 -21.53125 "/></g></g></g><g fill="#d8ae5e" fill-opacity="1"><g transform="translate(234.766827, 254.370319)"><g><path d="M 12.859375 -21.53125 L 19.234375 -21.53125 L 19.234375 -19.234375 L 17.515625 -19.234375 L 17.515625 -3.15625 L 14.53125 0 L 6.71875 0 L 3.734375 -3.15625 L 3.734375 -19.234375 L 2.015625 -19.234375 L 2.015625 -21.53125 L 8.390625 -21.53125 L 8.390625 -19.234375 L 6.375 -19.234375 L 6.375 -3.984375 L 7.84375 -2.46875 L 13.390625 -2.46875 L 14.875 -3.984375 L 14.875 -19.234375 L 12.859375 -19.234375 Z M 12.859375 -21.53125 "/></g></g></g><g fill="#d8ae5e" fill-opacity="1"><g transform="translate(256.013369, 254.370319)"><g><path d="M 2.296875 -21.53125 L 13.78125 -21.53125 L 16.765625 -18.375 L 16.765625 -13.203125 L 15.21875 -11.578125 L 17.34375 -9.359375 L 17.34375 -3.15625 L 14.359375 0 L 2.296875 0 L 2.296875 -2.296875 L 4.3125 -2.296875 L 4.3125 -19.234375 L 2.296875 -19.234375 Z M 6.953125 -10.21875 L 6.953125 -2.46875 L 13.203125 -2.46875 L 14.875 -4.171875 L 14.875 -8.359375 L 13.0625 -10.21875 Z M 6.953125 -19.0625 L 6.953125 -12.515625 L 12.640625 -12.515625 L 14.296875 -14.21875 L 14.296875 -17.375 L 12.671875 -19.0625 Z M 6.953125 -19.0625 "/></g></g></g></svg>