<svg xmlns="http://www.w3.org/2000/svg" xmlns:xlink="http://www.w3.org/1999/xlink" width="500" zoomAndPan="magnify" viewBox="0 0 375 374.999991" height="500" preserveAspectRatio="xMidYMid meet" version="1.0"><defs><g/><clipPath id="fb018ea7ca"><path d="M 68.757812 64.964844 L 306.507812 64.964844 L 306.507812 242.714844 L 68.757812 242.714844 Z M 68.757812 64.964844 " clip-rule="nonzero"/></clipPath><clipPath id="6bb7bf3392"><path d="M 205.242188 126.625 L 173.417969 126.625 L 235.5625 74.722656 C 236.011719 74.351562 236.578125 74.144531 237.15625 74.144531 L 278.972656 74.144531 C 279.984375 74.144531 280.597656 74.703125 280.875 75.039062 C 281.148438 75.371094 281.582031 76.078125 281.390625 77.070312 L 280.574219 81.328125 C 280.402344 82.238281 279.75 82.964844 278.863281 83.230469 L 261.128906 88.558594 C 257.0625 89.777344 254.070312 92.980469 253.125 97.121094 C 252.179688 101.257812 253.480469 105.429688 256.609375 108.292969 C 262.757812 113.90625 271.273438 122.8125 276.929688 133.378906 C 284.980469 148.433594 284.886719 162.507812 276.683594 175.324219 C 265.292969 146.253906 237.082031 126.625 205.242188 126.625 Z M 89.203125 150.011719 L 89.050781 150.011719 C 83.035156 150.011719 78.140625 145.113281 78.140625 139.097656 L 78.140625 116.058594 C 78.140625 110.042969 83.035156 105.144531 89.050781 105.144531 L 115.855469 105.144531 C 126.929688 105.144531 135.9375 96.132812 135.9375 85.054688 C 135.9375 73.976562 126.929688 64.964844 115.855469 64.964844 L 84.738281 64.964844 L 84.738281 74.140625 L 115.855469 74.140625 C 121.871094 74.140625 126.765625 79.039062 126.765625 85.054688 C 126.765625 91.074219 121.871094 95.96875 115.855469 95.96875 L 89.050781 95.96875 C 77.976562 95.96875 68.972656 104.980469 68.972656 116.058594 L 68.972656 139.097656 C 68.972656 149.308594 76.625 157.753906 86.492188 159.019531 C 87.035156 155.871094 87.953125 152.851562 89.203125 150.011719 Z M 305.503906 106.085938 L 286.953125 88.492188 C 285.53125 90.132812 283.660156 91.375 281.492188 92.019531 L 263.765625 97.351562 C 262.519531 97.722656 262.160156 98.746094 262.066406 99.167969 C 261.96875 99.585938 261.847656 100.652344 262.796875 101.519531 C 269.003906 107.183594 277.460938 115.996094 283.65625 126.625 L 295.875 126.625 C 297.34375 126.625 298.777344 126.894531 300.132812 127.429688 L 302.921875 128.53125 C 303.972656 128.949219 304.804688 128.550781 305.207031 128.277344 C 305.53125 128.058594 306.285156 127.417969 306.285156 126.238281 L 306.285156 107.886719 C 306.285156 107.207031 306.007812 106.566406 305.503906 106.085938 Z M 278.261719 229.6875 C 275.265625 228.589844 273.242188 225.738281 273.195312 222.585938 L 272.820312 202.191406 C 272.71875 196.734375 271.972656 191.347656 270.605469 186.1875 C 262.820312 156.515625 235.941406 135.800781 205.242188 135.800781 L 124.953125 135.800781 C 108.480469 135.800781 95.082031 149.207031 95.082031 165.6875 L 95.082031 177.523438 C 95.082031 179.296875 94.457031 181.03125 93.328125 182.414062 L 78.140625 200.519531 L 78.140625 242.546875 L 113.5 242.546875 L 109.894531 235.339844 L 103.894531 232.210938 C 101.601562 231.003906 100.085938 228.757812 99.816406 226.195312 C 99.550781 223.636719 100.578125 221.125 102.558594 219.484375 L 123.082031 202.578125 L 130.480469 174.554688 L 139.347656 176.898438 L 136.292969 188.46875 L 181.328125 197.085938 L 233.441406 197.558594 C 236.546875 197.578125 239.316406 199.460938 240.484375 202.351562 L 256.699219 242.546875 L 292.164062 242.546875 L 288.753906 233.472656 Z M 222.945312 229.820312 C 219.957031 228.730469 217.929688 225.875 217.882812 222.71875 L 217.585938 206.589844 L 186.710938 206.3125 L 201.382812 242.6875 L 236.851562 242.6875 L 233.4375 233.609375 Z M 222.945312 229.820312 " clip-rule="nonzero"/></clipPath><linearGradient x1="-0.00000641135" gradientTransform="matrix(0.635402, 0, 0, 0.63573, 68.970897, 64.965398)" y1="139.776993" x2="373.486001" gradientUnits="userSpaceOnUse" y2="139.776993" id="fad5e8fb35"><stop stop-opacity="1" stop-color="rgb(90.59906%, 83.099365%, 61.999512%)" offset="0"/><stop stop-opacity="1" stop-color="rgb(90.576172%, 83.041382%, 61.90033%)" offset="0.0078125"/><stop stop-opacity="1" stop-color="rgb(90.530396%, 82.923889%, 61.705017%)" offset="0.015625"/><stop stop-opacity="1" stop-color="rgb(90.483093%, 82.807922%, 61.508179%)" offset="0.0234375"/><stop stop-opacity="1" stop-color="rgb(90.437317%, 82.691956%, 61.312866%)" offset="0.03125"/><stop stop-opacity="1" stop-color="rgb(90.391541%, 82.574463%, 61.116028%)" offset="0.0390625"/><stop stop-opacity="1" stop-color="rgb(90.345764%, 82.458496%, 60.920715%)" offset="0.046875"/><stop stop-opacity="1" stop-color="rgb(90.299988%, 82.342529%, 60.723877%)" offset="0.0546875"/><stop stop-opacity="1" stop-color="rgb(90.252686%, 82.226562%, 60.528564%)" offset="0.0625"/><stop stop-opacity="1" stop-color="rgb(90.206909%, 82.10907%, 60.331726%)" offset="0.0703125"/><stop stop-opacity="1" stop-color="rgb(90.161133%, 81.993103%, 60.136414%)" offset="0.078125"/><stop stop-opacity="1" stop-color="rgb(90.115356%, 81.877136%, 59.939575%)" offset="0.0859375"/><stop stop-opacity="1" stop-color="rgb(90.06958%, 81.759644%, 59.744263%)" offset="0.09375"/><stop stop-opacity="1" stop-color="rgb(90.022278%, 81.643677%, 59.547424%)" offset="0.101562"/><stop stop-opacity="1" stop-color="rgb(89.976501%, 81.52771%, 59.352112%)" offset="0.109375"/><stop stop-opacity="1" stop-color="rgb(89.930725%, 81.411743%, 59.155273%)" offset="0.117188"/><stop stop-opacity="1" stop-color="rgb(89.884949%, 81.29425%, 58.959961%)" offset="0.125"/><stop stop-opacity="1" stop-color="rgb(89.839172%, 81.178284%, 58.763123%)" offset="0.132812"/><stop stop-opacity="1" stop-color="rgb(89.79187%, 81.062317%, 58.56781%)" offset="0.140625"/><stop stop-opacity="1" stop-color="rgb(89.746094%, 80.944824%, 58.370972%)" offset="0.148437"/><stop stop-opacity="1" stop-color="rgb(89.700317%, 80.828857%, 58.175659%)" offset="0.15625"/><stop stop-opacity="1" stop-color="rgb(89.654541%, 80.712891%, 57.978821%)" offset="0.164062"/><stop stop-opacity="1" stop-color="rgb(89.608765%, 80.596924%, 57.783508%)" offset="0.171875"/><stop stop-opacity="1" stop-color="rgb(89.561462%, 80.479431%, 57.58667%)" offset="0.179687"/><stop stop-opacity="1" stop-color="rgb(89.515686%, 80.363464%, 57.391357%)" offset="0.1875"/><stop stop-opacity="1" stop-color="rgb(89.46991%, 80.247498%, 57.194519%)" offset="0.195312"/><stop stop-opacity="1" stop-color="rgb(89.424133%, 80.130005%, 56.999207%)" offset="0.203125"/><stop stop-opacity="1" stop-color="rgb(89.378357%, 80.014038%, 56.802368%)" offset="0.210937"/><stop stop-opacity="1" stop-color="rgb(89.331055%, 79.898071%, 56.60553%)" offset="0.21875"/><stop stop-opacity="1" stop-color="rgb(89.285278%, 79.782104%, 56.410217%)" offset="0.226562"/><stop stop-opacity="1" stop-color="rgb(89.239502%, 79.664612%, 56.213379%)" offset="0.234375"/><stop stop-opacity="1" stop-color="rgb(89.193726%, 79.548645%, 56.018066%)" offset="0.242187"/><stop stop-opacity="1" stop-color="rgb(89.146423%, 79.432678%, 55.821228%)" offset="0.25"/><stop stop-opacity="1" stop-color="rgb(89.100647%, 79.315186%, 55.625916%)" offset="0.257812"/><stop stop-opacity="1" stop-color="rgb(89.054871%, 79.199219%, 55.429077%)" offset="0.265625"/><stop stop-opacity="1" stop-color="rgb(89.009094%, 79.083252%, 55.233765%)" offset="0.273437"/><stop stop-opacity="1" stop-color="rgb(88.963318%, 78.967285%, 55.036926%)" offset="0.28125"/><stop stop-opacity="1" stop-color="rgb(88.916016%, 78.849792%, 54.841614%)" offset="0.289062"/><stop stop-opacity="1" stop-color="rgb(88.870239%, 78.733826%, 54.644775%)" offset="0.296875"/><stop stop-opacity="1" stop-color="rgb(88.824463%, 78.617859%, 54.449463%)" offset="0.304687"/><stop stop-opacity="1" stop-color="rgb(88.778687%, 78.500366%, 54.252625%)" offset="0.3125"/><stop stop-opacity="1" stop-color="rgb(88.73291%, 78.384399%, 54.057312%)" offset="0.320312"/><stop stop-opacity="1" stop-color="rgb(88.685608%, 78.268433%, 53.860474%)" offset="0.328125"/><stop stop-opacity="1" stop-color="rgb(88.639832%, 78.152466%, 53.665161%)" offset="0.335937"/><stop stop-opacity="1" stop-color="rgb(88.594055%, 78.034973%, 53.468323%)" offset="0.34375"/><stop stop-opacity="1" stop-color="rgb(88.548279%, 77.919006%, 53.27301%)" offset="0.351562"/><stop stop-opacity="1" stop-color="rgb(88.502502%, 77.80304%, 53.076172%)" offset="0.359375"/><stop stop-opacity="1" stop-color="rgb(88.4552%, 77.685547%, 52.880859%)" offset="0.367188"/><stop stop-opacity="1" stop-color="rgb(88.409424%, 77.56958%, 52.684021%)" offset="0.375"/><stop stop-opacity="1" stop-color="rgb(88.363647%, 77.453613%, 52.488708%)" offset="0.382812"/><stop stop-opacity="1" stop-color="rgb(88.317871%, 77.337646%, 52.29187%)" offset="0.390625"/><stop stop-opacity="1" stop-color="rgb(88.272095%, 77.220154%, 52.096558%)" offset="0.398437"/><stop stop-opacity="1" stop-color="rgb(88.224792%, 77.104187%, 51.899719%)" offset="0.40625"/><stop stop-opacity="1" stop-color="rgb(88.179016%, 76.98822%, 51.704407%)" offset="0.414062"/><stop stop-opacity="1" stop-color="rgb(88.13324%, 76.870728%, 51.507568%)" offset="0.421875"/><stop stop-opacity="1" stop-color="rgb(88.087463%, 76.754761%, 51.312256%)" offset="0.429687"/><stop stop-opacity="1" stop-color="rgb(88.040161%, 76.638794%, 51.115417%)" offset="0.4375"/><stop stop-opacity="1" stop-color="rgb(87.994385%, 76.521301%, 50.920105%)" offset="0.445312"/><stop stop-opacity="1" stop-color="rgb(87.948608%, 76.405334%, 50.723267%)" offset="0.453125"/><stop stop-opacity="1" stop-color="rgb(87.902832%, 76.289368%, 50.527954%)" offset="0.460937"/><stop stop-opacity="1" stop-color="rgb(87.857056%, 76.173401%, 50.331116%)" offset="0.46875"/><stop stop-opacity="1" stop-color="rgb(87.809753%, 76.055908%, 50.135803%)" offset="0.476562"/><stop stop-opacity="1" stop-color="rgb(87.763977%, 75.939941%, 49.938965%)" offset="0.484375"/><stop stop-opacity="1" stop-color="rgb(87.718201%, 75.823975%, 49.743652%)" offset="0.492188"/><stop stop-opacity="1" stop-color="rgb(87.672424%, 75.706482%, 49.546814%)" offset="0.5"/><stop stop-opacity="1" stop-color="rgb(87.626648%, 75.590515%, 49.351501%)" offset="0.507812"/><stop stop-opacity="1" stop-color="rgb(87.579346%, 75.474548%, 49.154663%)" offset="0.515625"/><stop stop-opacity="1" stop-color="rgb(87.533569%, 75.358582%, 48.959351%)" offset="0.523438"/><stop stop-opacity="1" stop-color="rgb(87.487793%, 75.241089%, 48.762512%)" offset="0.53125"/><stop stop-opacity="1" stop-color="rgb(87.442017%, 75.125122%, 48.565674%)" offset="0.539062"/><stop stop-opacity="1" stop-color="rgb(87.39624%, 75.009155%, 48.370361%)" offset="0.546875"/><stop stop-opacity="1" stop-color="rgb(87.348938%, 74.891663%, 48.173523%)" offset="0.554688"/><stop stop-opacity="1" stop-color="rgb(87.303162%, 74.775696%, 47.97821%)" offset="0.5625"/><stop stop-opacity="1" stop-color="rgb(87.257385%, 74.659729%, 47.781372%)" offset="0.570312"/><stop stop-opacity="1" stop-color="rgb(87.211609%, 74.543762%, 47.58606%)" offset="0.578125"/><stop stop-opacity="1" stop-color="rgb(87.165833%, 74.42627%, 47.389221%)" offset="0.585938"/><stop stop-opacity="1" stop-color="rgb(87.11853%, 74.310303%, 47.193909%)" offset="0.59375"/><stop stop-opacity="1" stop-color="rgb(87.072754%, 74.194336%, 46.99707%)" offset="0.601562"/><stop stop-opacity="1" stop-color="rgb(87.026978%, 74.076843%, 46.801758%)" offset="0.609375"/><stop stop-opacity="1" stop-color="rgb(86.981201%, 73.960876%, 46.604919%)" offset="0.617188"/><stop stop-opacity="1" stop-color="rgb(86.933899%, 73.84491%, 46.409607%)" offset="0.625"/><stop stop-opacity="1" stop-color="rgb(86.888123%, 73.728943%, 46.212769%)" offset="0.632812"/><stop stop-opacity="1" stop-color="rgb(86.842346%, 73.61145%, 46.017456%)" offset="0.640625"/><stop stop-opacity="1" stop-color="rgb(86.79657%, 73.495483%, 45.820618%)" offset="0.648438"/><stop stop-opacity="1" stop-color="rgb(86.750793%, 73.379517%, 45.625305%)" offset="0.65625"/><stop stop-opacity="1" stop-color="rgb(86.703491%, 73.262024%, 45.428467%)" offset="0.664062"/><stop stop-opacity="1" stop-color="rgb(86.657715%, 73.146057%, 45.233154%)" offset="0.671875"/><stop stop-opacity="1" stop-color="rgb(86.611938%, 73.03009%, 45.036316%)" offset="0.679688"/><stop stop-opacity="1" stop-color="rgb(86.566162%, 72.914124%, 44.841003%)" offset="0.6875"/><stop stop-opacity="1" stop-color="rgb(86.520386%, 72.796631%, 44.644165%)" offset="0.695312"/><stop stop-opacity="1" stop-color="rgb(86.473083%, 72.680664%, 44.448853%)" offset="0.703125"/><stop stop-opacity="1" stop-color="rgb(86.427307%, 72.564697%, 44.252014%)" offset="0.710938"/><stop stop-opacity="1" stop-color="rgb(86.381531%, 72.447205%, 44.056702%)" offset="0.71875"/><stop stop-opacity="1" stop-color="rgb(86.335754%, 72.331238%, 43.859863%)" offset="0.726562"/><stop stop-opacity="1" stop-color="rgb(86.289978%, 72.215271%, 43.664551%)" offset="0.734375"/><stop stop-opacity="1" stop-color="rgb(86.242676%, 72.099304%, 43.467712%)" offset="0.742188"/><stop stop-opacity="1" stop-color="rgb(86.196899%, 71.981812%, 43.2724%)" offset="0.75"/><stop stop-opacity="1" stop-color="rgb(86.151123%, 71.865845%, 43.075562%)" offset="0.757812"/><stop stop-opacity="1" stop-color="rgb(86.105347%, 71.749878%, 42.880249%)" offset="0.765625"/><stop stop-opacity="1" stop-color="rgb(86.05957%, 71.632385%, 42.683411%)" offset="0.773438"/><stop stop-opacity="1" stop-color="rgb(86.012268%, 71.516418%, 42.488098%)" offset="0.78125"/><stop stop-opacity="1" stop-color="rgb(85.966492%, 71.400452%, 42.29126%)" offset="0.789062"/><stop stop-opacity="1" stop-color="rgb(85.920715%, 71.284485%, 42.095947%)" offset="0.796875"/><stop stop-opacity="1" stop-color="rgb(85.874939%, 71.166992%, 41.899109%)" offset="0.804688"/><stop stop-opacity="1" stop-color="rgb(85.827637%, 71.051025%, 41.703796%)" offset="0.8125"/><stop stop-opacity="1" stop-color="rgb(85.78186%, 70.935059%, 41.506958%)" offset="0.820312"/><stop stop-opacity="1" stop-color="rgb(85.736084%, 70.817566%, 41.311646%)" offset="0.828125"/><stop stop-opacity="1" stop-color="rgb(85.690308%, 70.701599%, 41.114807%)" offset="0.835938"/><stop stop-opacity="1" stop-color="rgb(85.644531%, 70.585632%, 40.919495%)" offset="0.84375"/><stop stop-opacity="1" stop-color="rgb(85.597229%, 70.469666%, 40.722656%)" offset="0.851562"/><stop stop-opacity="1" stop-color="rgb(85.551453%, 70.352173%, 40.525818%)" offset="0.859375"/><stop stop-opacity="1" stop-color="rgb(85.505676%, 70.236206%, 40.330505%)" offset="0.867188"/><stop stop-opacity="1" stop-color="rgb(85.4599%, 70.120239%, 40.133667%)" offset="0.875"/><stop stop-opacity="1" stop-color="rgb(85.414124%, 70.002747%, 39.938354%)" offset="0.882812"/><stop stop-opacity="1" stop-color="rgb(85.366821%, 69.88678%, 39.741516%)" offset="0.890625"/><stop stop-opacity="1" stop-color="rgb(85.321045%, 69.770813%, 39.546204%)" offset="0.898438"/><stop stop-opacity="1" stop-color="rgb(85.275269%, 69.654846%, 39.349365%)" offset="0.90625"/><stop stop-opacity="1" stop-color="rgb(85.229492%, 69.537354%, 39.154053%)" offset="0.914062"/><stop stop-opacity="1" stop-color="rgb(85.183716%, 69.421387%, 38.957214%)" offset="0.921875"/><stop stop-opacity="1" stop-color="rgb(85.136414%, 69.30542%, 38.761902%)" offset="0.929688"/><stop stop-opacity="1" stop-color="rgb(85.090637%, 69.187927%, 38.565063%)" offset="0.9375"/><stop stop-opacity="1" stop-color="rgb(85.044861%, 69.07196%, 38.369751%)" offset="0.945312"/><stop stop-opacity="1" stop-color="rgb(84.999084%, 68.955994%, 38.172913%)" offset="0.953125"/><stop stop-opacity="1" stop-color="rgb(84.953308%, 68.838501%, 37.9776%)" offset="0.960938"/><stop stop-opacity="1" stop-color="rgb(84.906006%, 68.722534%, 37.780762%)" offset="0.96875"/><stop stop-opacity="1" stop-color="rgb(84.860229%, 68.606567%, 37.585449%)" offset="0.976562"/><stop stop-opacity="1" stop-color="rgb(84.814453%, 68.490601%, 37.388611%)" offset="0.984375"/><stop stop-opacity="1" stop-color="rgb(84.768677%, 68.373108%, 37.193298%)" offset="0.992188"/><stop stop-opacity="1" stop-color="rgb(84.721375%, 68.257141%, 36.99646%)" offset="1"/></linearGradient></defs><g clip-path="url(#fb018ea7ca)"><g clip-path="url(#6bb7bf3392)"><path fill="url(#fad5e8fb35)" d="M 68.972656 64.964844 L 68.972656 242.6875 L 306.285156 242.6875 L 306.285156 64.964844 Z M 68.972656 64.964844 " fill-rule="nonzero"/></g></g><g fill="#d8ae5e" fill-opacity="0.4"><g transform="translate(107.75436, 306.123558)"><g><path d="M 0.96875 -1.109375 L 2.078125 -1.109375 L 2.078125 -9.28125 L 0.96875 -9.28125 L 0.96875 -10.390625 L 4.453125 -10.390625 L 4.453125 -9.28125 L 3.34375 -9.28125 L 3.34375 -1.109375 L 4.453125 -1.109375 L 4.453125 0 L 0.96875 0 Z M 0.96875 -1.109375 "/></g></g></g><g fill="#d8ae5e" fill-opacity="0.4"><g transform="translate(114.990882, 306.123558)"><g><path d="M 3.34375 -1.109375 L 4.3125 -1.109375 L 4.3125 0 L 1.109375 0 L 1.109375 -1.109375 L 2.078125 -1.109375 L 2.078125 -9.28125 L 1.109375 -9.28125 L 1.109375 -10.390625 L 3.984375 -10.390625 L 8.03125 -1.5625 L 8.03125 -9.28125 L 7.0625 -9.28125 L 7.0625 -10.390625 L 10.265625 -10.390625 L 10.265625 -9.28125 L 9.296875 -9.28125 L 9.296875 0 L 7.390625 0 L 3.34375 -8.796875 Z M 3.34375 -1.109375 "/></g></g></g><g fill="#d8ae5e" fill-opacity="0.4"><g transform="translate(128.037757, 306.123558)"><g><path d="M 7.203125 -7.109375 L 6.046875 -7.109375 L 6.046875 -8.328125 L 5.21875 -9.1875 L 3.09375 -9.1875 L 2.375 -8.453125 L 2.375 -6.546875 L 3.0625 -5.859375 L 5.9375 -5.859375 L 7.34375 -4.390625 L 7.34375 -1.515625 L 5.890625 0 L 2.40625 0 L 0.96875 -1.515625 L 0.96875 -3.265625 L 2.125 -3.265625 L 2.125 -2.046875 L 2.96875 -1.1875 L 5.359375 -1.1875 L 6.0625 -1.921875 L 6.0625 -3.984375 L 5.40625 -4.671875 L 2.515625 -4.671875 L 1.109375 -6.140625 L 1.109375 -8.859375 L 2.546875 -10.390625 L 5.765625 -10.390625 L 7.203125 -8.859375 Z M 7.203125 -7.109375 "/></g></g></g><g fill="#d8ae5e" fill-opacity="0.4"><g transform="translate(138.15179, 306.123558)"><g><path d="M 1.109375 -10.390625 L 7.703125 -10.390625 L 7.703125 -7.671875 L 6.59375 -7.671875 L 6.59375 -9.28125 L 3.34375 -9.28125 L 3.34375 -5.75 L 6.59375 -5.75 L 6.59375 -4.640625 L 3.34375 -4.640625 L 3.34375 -1.109375 L 6.59375 -1.109375 L 6.59375 -2.71875 L 7.703125 -2.71875 L 7.703125 0 L 1.109375 0 L 1.109375 -1.109375 L 2.078125 -1.109375 L 2.078125 -9.28125 L 1.109375 -9.28125 Z M 1.109375 -10.390625 "/></g></g></g><g fill="#d8ae5e" fill-opacity="0.4"><g transform="translate(148.763848, 306.123558)"><g><path d="M 6.5 -4.21875 L 4.59375 -4.21875 L 4.59375 -5.328125 L 7.609375 -5.328125 L 7.609375 -1.515625 L 6.171875 0 L 2.546875 0 L 1.109375 -1.515625 L 1.109375 -8.859375 L 2.546875 -10.390625 L 6.171875 -10.390625 L 7.609375 -8.859375 L 7.609375 -7.109375 L 6.5 -7.109375 L 6.5 -8.296875 L 5.640625 -9.1875 L 3.09375 -9.1875 L 2.375 -8.453125 L 2.375 -1.921875 L 3.09375 -1.1875 L 5.625 -1.1875 L 6.5 -2.09375 Z M 6.5 -4.21875 "/></g></g></g><g fill="#d8ae5e" fill-opacity="0.4"><g transform="translate(159.154558, 306.123558)"><g><path d="M 3.34375 -1.109375 L 4.3125 -1.109375 L 4.3125 0 L 1.109375 0 L 1.109375 -1.109375 L 2.078125 -1.109375 L 2.078125 -9.28125 L 1.109375 -9.28125 L 1.109375 -10.390625 L 3.984375 -10.390625 L 8.03125 -1.5625 L 8.03125 -9.28125 L 7.0625 -9.28125 L 7.0625 -10.390625 L 10.265625 -10.390625 L 10.265625 -9.28125 L 9.296875 -9.28125 L 9.296875 0 L 7.390625 0 L 3.34375 -8.796875 Z M 3.34375 -1.109375 "/></g></g></g><g fill="#d8ae5e" fill-opacity="0.4"><g transform="translate(172.201431, 306.123558)"><g><path d="M 2.703125 -10.390625 L 6.390625 -10.390625 L 6.390625 -9.28125 L 5.765625 -9.28125 L 8.203125 -1.109375 L 8.890625 -1.109375 L 8.890625 0 L 5.953125 0 L 5.953125 -1.109375 L 6.921875 -1.109375 L 6.28125 -3.234375 L 2.8125 -3.234375 L 2.171875 -1.109375 L 3.140625 -1.109375 L 3.140625 0 L 0.203125 0 L 0.203125 -1.109375 L 0.90625 -1.109375 L 3.34375 -9.28125 L 2.703125 -9.28125 Z M 4.546875 -9.0625 L 3.140625 -4.34375 L 5.953125 -4.34375 Z M 4.546875 -9.0625 "/></g></g></g><g fill="#d8ae5e" fill-opacity="0.4"><g transform="translate(183.104001, 306.123558)"><g/></g></g><g fill="#d8ae5e" fill-opacity="0.4"><g transform="translate(189.759485, 306.123558)"><g><path d="M 1.109375 -10.390625 L 7.703125 -10.390625 L 7.703125 -7.671875 L 6.59375 -7.671875 L 6.59375 -9.28125 L 3.34375 -9.28125 L 3.34375 -5.75 L 6.59375 -5.75 L 6.59375 -4.640625 L 3.34375 -4.640625 L 3.34375 -1.109375 L 6.59375 -1.109375 L 6.59375 -2.71875 L 7.703125 -2.71875 L 7.703125 0 L 1.109375 0 L 1.109375 -1.109375 L 2.078125 -1.109375 L 2.078125 -9.28125 L 1.109375 -9.28125 Z M 1.109375 -10.390625 "/></g></g></g><g fill="#d8ae5e" fill-opacity="0.4"><g transform="translate(200.371546, 306.123558)"><g/></g></g><g fill="#d8ae5e" fill-opacity="0.4"><g transform="translate(207.02703, 306.123558)"><g><path d="M 0.96875 -1.109375 L 2.078125 -1.109375 L 2.078125 -9.28125 L 0.96875 -9.28125 L 0.96875 -10.390625 L 4.453125 -10.390625 L 4.453125 -9.28125 L 3.34375 -9.28125 L 3.34375 -1.109375 L 4.453125 -1.109375 L 4.453125 0 L 0.96875 0 Z M 0.96875 -1.109375 "/></g></g></g><g fill="#d8ae5e" fill-opacity="0.4"><g transform="translate(214.263556, 306.123558)"><g><path d="M 7.203125 -7.109375 L 6.046875 -7.109375 L 6.046875 -8.328125 L 5.21875 -9.1875 L 3.09375 -9.1875 L 2.375 -8.453125 L 2.375 -6.546875 L 3.0625 -5.859375 L 5.9375 -5.859375 L 7.34375 -4.390625 L 7.34375 -1.515625 L 5.890625 0 L 2.40625 0 L 0.96875 -1.515625 L 0.96875 -3.265625 L 2.125 -3.265625 L 2.125 -2.046875 L 2.96875 -1.1875 L 5.359375 -1.1875 L 6.0625 -1.921875 L 6.0625 -3.984375 L 5.40625 -4.671875 L 2.515625 -4.671875 L 1.109375 -6.140625 L 1.109375 -8.859375 L 2.546875 -10.390625 L 5.765625 -10.390625 L 7.203125 -8.859375 Z M 7.203125 -7.109375 "/></g></g></g><g fill="#d8ae5e" fill-opacity="0.4"><g transform="translate(224.377591, 306.123558)"><g><path d="M 1.109375 -10.390625 L 6.640625 -10.390625 L 8.078125 -8.859375 L 8.078125 -5.671875 L 6.640625 -4.15625 L 3.34375 -4.15625 L 3.34375 -1.109375 L 4.453125 -1.109375 L 4.453125 0 L 1.109375 0 L 1.109375 -1.109375 L 2.078125 -1.109375 L 2.078125 -9.28125 L 1.109375 -9.28125 Z M 3.34375 -9.1875 L 3.34375 -5.34375 L 6.09375 -5.34375 L 6.890625 -6.15625 L 6.890625 -8.375 L 6.109375 -9.1875 Z M 3.34375 -9.1875 "/></g></g></g><g fill="#d8ae5e" fill-opacity="0.4"><g transform="translate(234.823638, 306.123558)"><g><path d="M 0.96875 -1.109375 L 2.078125 -1.109375 L 2.078125 -9.28125 L 0.96875 -9.28125 L 0.96875 -10.390625 L 4.453125 -10.390625 L 4.453125 -9.28125 L 3.34375 -9.28125 L 3.34375 -1.109375 L 4.453125 -1.109375 L 4.453125 0 L 0.96875 0 Z M 0.96875 -1.109375 "/></g></g></g><g fill="#d8ae5e" fill-opacity="0.4"><g transform="translate(242.060164, 306.123558)"><g><path d="M 1.109375 -10.390625 L 6.640625 -10.390625 L 8.078125 -8.859375 L 8.078125 -5.8125 L 6.640625 -4.296875 L 8.125 -1.109375 L 8.84375 -1.109375 L 8.84375 0 L 6.25 0 L 6.25 -1.109375 L 6.78125 -1.109375 L 5.296875 -4.296875 L 3.34375 -4.296875 L 3.34375 -1.109375 L 4.1875 -1.109375 L 4.1875 0 L 1.109375 0 L 1.109375 -1.109375 L 2.078125 -1.109375 L 2.078125 -9.28125 L 1.109375 -9.28125 Z M 3.34375 -9.1875 L 3.34375 -5.484375 L 6.09375 -5.484375 L 6.890625 -6.296875 L 6.890625 -8.375 L 6.109375 -9.1875 Z M 3.34375 -9.1875 "/></g></g></g><g fill="#d8ae5e" fill-opacity="0.4"><g transform="translate(253.543771, 306.123558)"><g><path d="M 2.703125 -10.390625 L 6.390625 -10.390625 L 6.390625 -9.28125 L 5.765625 -9.28125 L 8.203125 -1.109375 L 8.890625 -1.109375 L 8.890625 0 L 5.953125 0 L 5.953125 -1.109375 L 6.921875 -1.109375 L 6.28125 -3.234375 L 2.8125 -3.234375 L 2.171875 -1.109375 L 3.140625 -1.109375 L 3.140625 0 L 0.203125 0 L 0.203125 -1.109375 L 0.90625 -1.109375 L 3.34375 -9.28125 L 2.703125 -9.28125 Z M 4.546875 -9.0625 L 3.140625 -4.34375 L 5.953125 -4.34375 Z M 4.546875 -9.0625 "/></g></g></g><g fill="#d8ae5e" fill-opacity="0.4"><g transform="translate(264.446345, 306.123558)"><g><path d="M 0.6875 -1.65625 L 2.078125 -1.65625 L 2.078125 0 L 0.6875 0 Z M 0.6875 -1.65625 "/></g></g></g><g fill="#d8ae5e" fill-opacity="1"><g transform="translate(107.75436, 306.123558)"><g><path d="M 0.96875 -1.109375 L 2.078125 -1.109375 L 2.078125 -9.28125 L 0.96875 -9.28125 L 0.96875 -10.390625 L 4.453125 -10.390625 L 4.453125 -9.28125 L 3.34375 -9.28125 L 3.34375 -1.109375 L 4.453125 -1.109375 L 4.453125 0 L 0.96875 0 Z M 0.96875 -1.109375 "/></g></g></g><g fill="#d8ae5e" fill-opacity="1"><g transform="translate(114.990882, 306.123558)"><g><path d="M 3.34375 -1.109375 L 4.3125 -1.109375 L 4.3125 0 L 1.109375 0 L 1.109375 -1.109375 L 2.078125 -1.109375 L 2.078125 -9.28125 L 1.109375 -9.28125 L 1.109375 -10.390625 L 3.984375 -10.390625 L 8.03125 -1.5625 L 8.03125 -9.28125 L 7.0625 -9.28125 L 7.0625 -10.390625 L 10.265625 -10.390625 L 10.265625 -9.28125 L 9.296875 -9.28125 L 9.296875 0 L 7.390625 0 L 3.34375 -8.796875 Z M 3.34375 -1.109375 "/></g></g></g><g fill="#d8ae5e" fill-opacity="1"><g transform="translate(128.037757, 306.123558)"><g><path d="M 7.203125 -7.109375 L 6.046875 -7.109375 L 6.046875 -8.328125 L 5.21875 -9.1875 L 3.09375 -9.1875 L 2.375 -8.453125 L 2.375 -6.546875 L 3.0625 -5.859375 L 5.9375 -5.859375 L 7.34375 -4.390625 L 7.34375 -1.515625 L 5.890625 0 L 2.40625 0 L 0.96875 -1.515625 L 0.96875 -3.265625 L 2.125 -3.265625 L 2.125 -2.046875 L 2.96875 -1.1875 L 5.359375 -1.1875 L 6.0625 -1.921875 L 6.0625 -3.984375 L 5.40625 -4.671875 L 2.515625 -4.671875 L 1.109375 -6.140625 L 1.109375 -8.859375 L 2.546875 -10.390625 L 5.765625 -10.390625 L 7.203125 -8.859375 Z M 7.203125 -7.109375 "/></g></g></g><g fill="#d8ae5e" fill-opacity="1"><g transform="translate(138.15179, 306.123558)"><g><path d="M 1.109375 -10.390625 L 7.703125 -10.390625 L 7.703125 -7.671875 L 6.59375 -7.671875 L 6.59375 -9.28125 L 3.34375 -9.28125 L 3.34375 -5.75 L 6.59375 -5.75 L 6.59375 -4.640625 L 3.34375 -4.640625 L 3.34375 -1.109375 L 6.59375 -1.109375 L 6.59375 -2.71875 L 7.703125 -2.71875 L 7.703125 0 L 1.109375 0 L 1.109375 -1.109375 L 2.078125 -1.109375 L 2.078125 -9.28125 L 1.109375 -9.28125 Z M 1.109375 -10.390625 "/></g></g></g><g fill="#d8ae5e" fill-opacity="1"><g transform="translate(148.763848, 306.123558)"><g><path d="M 6.5 -4.21875 L 4.59375 -4.21875 L 4.59375 -5.328125 L 7.609375 -5.328125 L 7.609375 -1.515625 L 6.171875 0 L 2.546875 0 L 1.109375 -1.515625 L 1.109375 -8.859375 L 2.546875 -10.390625 L 6.171875 -10.390625 L 7.609375 -8.859375 L 7.609375 -7.109375 L 6.5 -7.109375 L 6.5 -8.296875 L 5.640625 -9.1875 L 3.09375 -9.1875 L 2.375 -8.453125 L 2.375 -1.921875 L 3.09375 -1.1875 L 5.625 -1.1875 L 6.5 -2.09375 Z M 6.5 -4.21875 "/></g></g></g><g fill="#d8ae5e" fill-opacity="1"><g transform="translate(159.154558, 306.123558)"><g><path d="M 3.34375 -1.109375 L 4.3125 -1.109375 L 4.3125 0 L 1.109375 0 L 1.109375 -1.109375 L 2.078125 -1.109375 L 2.078125 -9.28125 L 1.109375 -9.28125 L 1.109375 -10.390625 L 3.984375 -10.390625 L 8.03125 -1.5625 L 8.03125 -9.28125 L 7.0625 -9.28125 L 7.0625 -10.390625 L 10.265625 -10.390625 L 10.265625 -9.28125 L 9.296875 -9.28125 L 9.296875 0 L 7.390625 0 L 3.34375 -8.796875 Z M 3.34375 -1.109375 "/></g></g></g><g fill="#d8ae5e" fill-opacity="1"><g transform="translate(172.201431, 306.123558)"><g><path d="M 2.703125 -10.390625 L 6.390625 -10.390625 L 6.390625 -9.28125 L 5.765625 -9.28125 L 8.203125 -1.109375 L 8.890625 -1.109375 L 8.890625 0 L 5.953125 0 L 5.953125 -1.109375 L 6.921875 -1.109375 L 6.28125 -3.234375 L 2.8125 -3.234375 L 2.171875 -1.109375 L 3.140625 -1.109375 L 3.140625 0 L 0.203125 0 L 0.203125 -1.109375 L 0.90625 -1.109375 L 3.34375 -9.28125 L 2.703125 -9.28125 Z M 4.546875 -9.0625 L 3.140625 -4.34375 L 5.953125 -4.34375 Z M 4.546875 -9.0625 "/></g></g></g><g fill="#d8ae5e" fill-opacity="1"><g transform="translate(183.104001, 306.123558)"><g/></g></g><g fill="#d8ae5e" fill-opacity="1"><g transform="translate(189.759485, 306.123558)"><g><path d="M 1.109375 -10.390625 L 7.703125 -10.390625 L 7.703125 -7.671875 L 6.59375 -7.671875 L 6.59375 -9.28125 L 3.34375 -9.28125 L 3.34375 -5.75 L 6.59375 -5.75 L 6.59375 -4.640625 L 3.34375 -4.640625 L 3.34375 -1.109375 L 6.59375 -1.109375 L 6.59375 -2.71875 L 7.703125 -2.71875 L 7.703125 0 L 1.109375 0 L 1.109375 -1.109375 L 2.078125 -1.109375 L 2.078125 -9.28125 L 1.109375 -9.28125 Z M 1.109375 -10.390625 "/></g></g></g><g fill="#d8ae5e" fill-opacity="1"><g transform="translate(200.371546, 306.123558)"><g/></g></g><g fill="#d8ae5e" fill-opacity="1"><g transform="translate(207.02703, 306.123558)"><g><path d="M 0.96875 -1.109375 L 2.078125 -1.109375 L 2.078125 -9.28125 L 0.96875 -9.28125 L 0.96875 -10.390625 L 4.453125 -10.390625 L 4.453125 -9.28125 L 3.34375 -9.28125 L 3.34375 -1.109375 L 4.453125 -1.109375 L 4.453125 0 L 0.96875 0 Z M 0.96875 -1.109375 "/></g></g></g><g fill="#d8ae5e" fill-opacity="1"><g transform="translate(214.263556, 306.123558)"><g><path d="M 7.203125 -7.109375 L 6.046875 -7.109375 L 6.046875 -8.328125 L 5.21875 -9.1875 L 3.09375 -9.1875 L 2.375 -8.453125 L 2.375 -6.546875 L 3.0625 -5.859375 L 5.9375 -5.859375 L 7.34375 -4.390625 L 7.34375 -1.515625 L 5.890625 0 L 2.40625 0 L 0.96875 -1.515625 L 0.96875 -3.265625 L 2.125 -3.265625 L 2.125 -2.046875 L 2.96875 -1.1875 L 5.359375 -1.1875 L 6.0625 -1.921875 L 6.0625 -3.984375 L 5.40625 -4.671875 L 2.515625 -4.671875 L 1.109375 -6.140625 L 1.109375 -8.859375 L 2.546875 -10.390625 L 5.765625 -10.390625 L 7.203125 -8.859375 Z M 7.203125 -7.109375 "/></g></g></g><g fill="#d8ae5e" fill-opacity="1"><g transform="translate(224.377591, 306.123558)"><g><path d="M 1.109375 -10.390625 L 6.640625 -10.390625 L 8.078125 -8.859375 L 8.078125 -5.671875 L 6.640625 -4.15625 L 3.34375 -4.15625 L 3.34375 -1.109375 L 4.453125 -1.109375 L 4.453125 0 L 1.109375 0 L 1.109375 -1.109375 L 2.078125 -1.109375 L 2.078125 -9.28125 L 1.109375 -9.28125 Z M 3.34375 -9.1875 L 3.34375 -5.34375 L 6.09375 -5.34375 L 6.890625 -6.15625 L 6.890625 -8.375 L 6.109375 -9.1875 Z M 3.34375 -9.1875 "/></g></g></g><g fill="#d8ae5e" fill-opacity="1"><g transform="translate(234.823638, 306.123558)"><g><path d="M 0.96875 -1.109375 L 2.078125 -1.109375 L 2.078125 -9.28125 L 0.96875 -9.28125 L 0.96875 -10.390625 L 4.453125 -10.390625 L 4.453125 -9.28125 L 3.34375 -9.28125 L 3.34375 -1.109375 L 4.453125 -1.109375 L 4.453125 0 L 0.96875 0 Z M 0.96875 -1.109375 "/></g></g></g><g fill="#d8ae5e" fill-opacity="1"><g transform="translate(242.060164, 306.123558)"><g><path d="M 1.109375 -10.390625 L 6.640625 -10.390625 L 8.078125 -8.859375 L 8.078125 -5.8125 L 6.640625 -4.296875 L 8.125 -1.109375 L 8.84375 -1.109375 L 8.84375 0 L 6.25 0 L 6.25 -1.109375 L 6.78125 -1.109375 L 5.296875 -4.296875 L 3.34375 -4.296875 L 3.34375 -1.109375 L 4.1875 -1.109375 L 4.1875 0 L 1.109375 0 L 1.109375 -1.109375 L 2.078125 -1.109375 L 2.078125 -9.28125 L 1.109375 -9.28125 Z M 3.34375 -9.1875 L 3.34375 -5.484375 L 6.09375 -5.484375 L 6.890625 -6.296875 L 6.890625 -8.375 L 6.109375 -9.1875 Z M 3.34375 -9.1875 "/></g></g></g><g fill="#d8ae5e" fill-opacity="1"><g transform="translate(253.543771, 306.123558)"><g><path d="M 2.703125 -10.390625 L 6.390625 -10.390625 L 6.390625 -9.28125 L 5.765625 -9.28125 L 8.203125 -1.109375 L 8.890625 -1.109375 L 8.890625 0 L 5.953125 0 L 5.953125 -1.109375 L 6.921875 -1.109375 L 6.28125 -3.234375 L 2.8125 -3.234375 L 2.171875 -1.109375 L 3.140625 -1.109375 L 3.140625 0 L 0.203125 0 L 0.203125 -1.109375 L 0.90625 -1.109375 L 3.34375 -9.28125 L 2.703125 -9.28125 Z M 4.546875 -9.0625 L 3.140625 -4.34375 L 5.953125 -4.34375 Z M 4.546875 -9.0625 "/></g></g></g><g fill="#d8ae5e" fill-opacity="1"><g transform="translate(264.446345, 306.123558)"><g><path d="M 0.6875 -1.65625 L 2.078125 -1.65625 L 2.078125 0 L 0.6875 0 Z M 0.6875 -1.65625 "/></g></g></g><g fill="#d8ae5e" fill-opacity="0.4"><g transform="translate(47.913044, 282.553899)"><g><path d="M 20.921875 -10.734375 L 24.546875 -10.734375 L 24.546875 -5 L 19.828125 0 L 8.359375 0 L 3.640625 -5 L 3.640625 -29.09375 L 8.359375 -34.109375 L 19.828125 -34.109375 L 24.546875 -29.09375 L 24.546875 -23.375 L 20.921875 -23.375 L 20.921875 -27.234375 L 18.046875 -30.1875 L 10.1875 -30.1875 L 7.828125 -27.78125 L 7.828125 -6.3125 L 10.140625 -3.90625 L 18 -3.90625 L 20.921875 -6.859375 Z M 20.921875 -10.734375 "/></g></g></g><g fill="#d8ae5e" fill-opacity="0.4"><g transform="translate(75.18736, 282.553899)"><g><path d="M 8.359375 0 L 3.640625 -5 L 3.640625 -29.09375 L 8.359375 -34.109375 L 21.1875 -34.109375 L 25.921875 -29.09375 L 25.921875 -5 L 21.1875 0 Z M 10.140625 -3.90625 L 19.375 -3.90625 L 21.734375 -6.3125 L 21.734375 -27.78125 L 19.421875 -30.1875 L 10.1875 -30.1875 L 7.828125 -27.78125 L 7.828125 -6.3125 Z M 10.140625 -3.90625 "/></g></g></g><g fill="#d8ae5e" fill-opacity="0.4"><g transform="translate(104.734522, 282.553899)"><g><path d="M 20.375 -34.109375 L 30.46875 -34.109375 L 30.46875 -30.46875 L 27.734375 -30.46875 L 27.734375 -5 L 23 0 L 10.640625 0 L 5.90625 -5 L 5.90625 -30.46875 L 3.1875 -30.46875 L 3.1875 -34.109375 L 13.28125 -34.109375 L 13.28125 -30.46875 L 10.09375 -30.46875 L 10.09375 -6.3125 L 12.40625 -3.90625 L 21.1875 -3.90625 L 23.546875 -6.3125 L 23.546875 -30.46875 L 20.375 -30.46875 Z M 20.375 -34.109375 "/></g></g></g><g fill="#d8ae5e" fill-opacity="0.4"><g transform="translate(138.372828, 282.553899)"><g><path d="M 3.640625 -34.109375 L 21.828125 -34.109375 L 26.546875 -29.09375 L 26.546875 -19.09375 L 21.828125 -14.09375 L 26.6875 -3.640625 L 29.046875 -3.640625 L 29.046875 0 L 20.5 0 L 20.5 -3.640625 L 22.28125 -3.640625 L 17.421875 -14.09375 L 11 -14.09375 L 11 -3.640625 L 13.734375 -3.640625 L 13.734375 0 L 3.640625 0 L 3.640625 -3.640625 L 6.828125 -3.640625 L 6.828125 -30.46875 L 3.640625 -30.46875 Z M 11 -30.1875 L 11 -18 L 20 -18 L 22.640625 -20.6875 L 22.640625 -27.515625 L 20.046875 -30.1875 Z M 11 -30.1875 "/></g></g></g><g fill="#d8ae5e" fill-opacity="0.4"><g transform="translate(170.147402, 282.553899)"><g><path d="M 23.640625 -23.375 L 19.875 -23.375 L 19.875 -27.375 L 17.140625 -30.1875 L 10.1875 -30.1875 L 7.828125 -27.78125 L 7.828125 -21.5 L 10.046875 -19.234375 L 19.5 -19.234375 L 24.09375 -14.40625 L 24.09375 -5 L 19.375 0 L 7.90625 0 L 3.1875 -5 L 3.1875 -10.734375 L 6.953125 -10.734375 L 6.953125 -6.734375 L 9.734375 -3.90625 L 17.59375 -3.90625 L 19.921875 -6.3125 L 19.921875 -13.09375 L 17.734375 -15.328125 L 8.28125 -15.328125 L 3.640625 -20.1875 L 3.640625 -29.09375 L 8.359375 -34.109375 L 18.921875 -34.109375 L 23.640625 -29.09375 Z M 23.640625 -23.375 "/></g></g></g><g fill="#d8ae5e" fill-opacity="0.4"><g transform="translate(197.421719, 282.553899)"><g><path d="M 3.640625 -34.109375 L 25.28125 -34.109375 L 25.28125 -25.1875 L 21.640625 -25.1875 L 21.640625 -30.46875 L 11 -30.46875 L 11 -18.875 L 21.640625 -18.875 L 21.640625 -15.234375 L 11 -15.234375 L 11 -3.640625 L 21.640625 -3.640625 L 21.640625 -8.90625 L 25.28125 -8.90625 L 25.28125 0 L 3.640625 0 L 3.640625 -3.640625 L 6.828125 -3.640625 L 6.828125 -30.46875 L 3.640625 -30.46875 Z M 3.640625 -34.109375 "/></g></g></g><g fill="#d8ae5e" fill-opacity="0.4"><g transform="translate(226.332485, 282.553899)"><g><path d="M 3.640625 -34.109375 L 14.1875 -34.109375 L 14.1875 -30.46875 L 11 -30.46875 L 11 -18.875 L 25.015625 -18.875 L 25.015625 -30.46875 L 21.828125 -30.46875 L 21.828125 -34.109375 L 32.375 -34.109375 L 32.375 -30.46875 L 29.1875 -30.46875 L 29.1875 -3.640625 L 32.375 -3.640625 L 32.375 0 L 21.828125 0 L 21.828125 -3.640625 L 25.015625 -3.640625 L 25.015625 -15.234375 L 11 -15.234375 L 11 -3.640625 L 14.1875 -3.640625 L 14.1875 0 L 3.640625 0 L 3.640625 -3.640625 L 6.828125 -3.640625 L 6.828125 -30.46875 L 3.640625 -30.46875 Z M 3.640625 -34.109375 "/></g></g></g><g fill="#d8ae5e" fill-opacity="0.4"><g transform="translate(262.334581, 282.553899)"><g><path d="M 20.375 -34.109375 L 30.46875 -34.109375 L 30.46875 -30.46875 L 27.734375 -30.46875 L 27.734375 -5 L 23 0 L 10.640625 0 L 5.90625 -5 L 5.90625 -30.46875 L 3.1875 -30.46875 L 3.1875 -34.109375 L 13.28125 -34.109375 L 13.28125 -30.46875 L 10.09375 -30.46875 L 10.09375 -6.3125 L 12.40625 -3.90625 L 21.1875 -3.90625 L 23.546875 -6.3125 L 23.546875 -30.46875 L 20.375 -30.46875 Z M 20.375 -34.109375 "/></g></g></g><g fill="#d8ae5e" fill-opacity="0.4"><g transform="translate(295.972887, 282.553899)"><g><path d="M 3.640625 -34.109375 L 21.828125 -34.109375 L 26.546875 -29.09375 L 26.546875 -20.921875 L 24.09375 -18.328125 L 27.46875 -14.828125 L 27.46875 -5 L 22.734375 0 L 3.640625 0 L 3.640625 -3.640625 L 6.828125 -3.640625 L 6.828125 -30.46875 L 3.640625 -30.46875 Z M 11 -16.1875 L 11 -3.90625 L 20.921875 -3.90625 L 23.546875 -6.59375 L 23.546875 -13.234375 L 20.6875 -16.1875 Z M 11 -30.1875 L 11 -19.828125 L 20 -19.828125 L 22.640625 -22.5 L 22.640625 -27.515625 L 20.046875 -30.1875 Z M 11 -30.1875 "/></g></g></g><g fill="#d8ae5e" fill-opacity="1"><g transform="translate(47.913044, 282.553899)"><g><path d="M 20.921875 -10.734375 L 24.546875 -10.734375 L 24.546875 -5 L 19.828125 0 L 8.359375 0 L 3.640625 -5 L 3.640625 -29.09375 L 8.359375 -34.109375 L 19.828125 -34.109375 L 24.546875 -29.09375 L 24.546875 -23.375 L 20.921875 -23.375 L 20.921875 -27.234375 L 18.046875 -30.1875 L 10.1875 -30.1875 L 7.828125 -27.78125 L 7.828125 -6.3125 L 10.140625 -3.90625 L 18 -3.90625 L 20.921875 -6.859375 Z M 20.921875 -10.734375 "/></g></g></g><g fill="#d8ae5e" fill-opacity="1"><g transform="translate(75.18736, 282.553899)"><g><path d="M 8.359375 0 L 3.640625 -5 L 3.640625 -29.09375 L 8.359375 -34.109375 L 21.1875 -34.109375 L 25.921875 -29.09375 L 25.921875 -5 L 21.1875 0 Z M 10.140625 -3.90625 L 19.375 -3.90625 L 21.734375 -6.3125 L 21.734375 -27.78125 L 19.421875 -30.1875 L 10.1875 -30.1875 L 7.828125 -27.78125 L 7.828125 -6.3125 Z M 10.140625 -3.90625 "/></g></g></g><g fill="#d8ae5e" fill-opacity="1"><g transform="translate(104.734522, 282.553899)"><g><path d="M 20.375 -34.109375 L 30.46875 -34.109375 L 30.46875 -30.46875 L 27.734375 -30.46875 L 27.734375 -5 L 23 0 L 10.640625 0 L 5.90625 -5 L 5.90625 -30.46875 L 3.1875 -30.46875 L 3.1875 -34.109375 L 13.28125 -34.109375 L 13.28125 -30.46875 L 10.09375 -30.46875 L 10.09375 -6.3125 L 12.40625 -3.90625 L 21.1875 -3.90625 L 23.546875 -6.3125 L 23.546875 -30.46875 L 20.375 -30.46875 Z M 20.375 -34.109375 "/></g></g></g><g fill="#d8ae5e" fill-opacity="1"><g transform="translate(138.372828, 282.553899)"><g><path d="M 3.640625 -34.109375 L 21.828125 -34.109375 L 26.546875 -29.09375 L 26.546875 -19.09375 L 21.828125 -14.09375 L 26.6875 -3.640625 L 29.046875 -3.640625 L 29.046875 0 L 20.5 0 L 20.5 -3.640625 L 22.28125 -3.640625 L 17.421875 -14.09375 L 11 -14.09375 L 11 -3.640625 L 13.734375 -3.640625 L 13.734375 0 L 3.640625 0 L 3.640625 -3.640625 L 6.828125 -3.640625 L 6.828125 -30.46875 L 3.640625 -30.46875 Z M 11 -30.1875 L 11 -18 L 20 -18 L 22.640625 -20.6875 L 22.640625 -27.515625 L 20.046875 -30.1875 Z M 11 -30.1875 "/></g></g></g><g fill="#d8ae5e" fill-opacity="1"><g transform="translate(170.147402, 282.553899)"><g><path d="M 23.640625 -23.375 L 19.875 -23.375 L 19.875 -27.375 L 17.140625 -30.1875 L 10.1875 -30.1875 L 7.828125 -27.78125 L 7.828125 -21.5 L 10.046875 -19.234375 L 19.5 -19.234375 L 24.09375 -14.40625 L 24.09375 -5 L 19.375 0 L 7.90625 0 L 3.1875 -5 L 3.1875 -10.734375 L 6.953125 -10.734375 L 6.953125 -6.734375 L 9.734375 -3.90625 L 17.59375 -3.90625 L 19.921875 -6.3125 L 19.921875 -13.09375 L 17.734375 -15.328125 L 8.28125 -15.328125 L 3.640625 -20.1875 L 3.640625 -29.09375 L 8.359375 -34.109375 L 18.921875 -34.109375 L 23.640625 -29.09375 Z M 23.640625 -23.375 "/></g></g></g><g fill="#d8ae5e" fill-opacity="1"><g transform="translate(197.421719, 282.553899)"><g><path d="M 3.640625 -34.109375 L 25.28125 -34.109375 L 25.28125 -25.1875 L 21.640625 -25.1875 L 21.640625 -30.46875 L 11 -30.46875 L 11 -18.875 L 21.640625 -18.875 L 21.640625 -15.234375 L 11 -15.234375 L 11 -3.640625 L 21.640625 -3.640625 L 21.640625 -8.90625 L 25.28125 -8.90625 L 25.28125 0 L 3.640625 0 L 3.640625 -3.640625 L 6.828125 -3.640625 L 6.828125 -30.46875 L 3.640625 -30.46875 Z M 3.640625 -34.109375 "/></g></g></g><g fill="#d8ae5e" fill-opacity="1"><g transform="translate(226.332485, 282.553899)"><g><path d="M 3.640625 -34.109375 L 14.1875 -34.109375 L 14.1875 -30.46875 L 11 -30.46875 L 11 -18.875 L 25.015625 -18.875 L 25.015625 -30.46875 L 21.828125 -30.46875 L 21.828125 -34.109375 L 32.375 -34.109375 L 32.375 -30.46875 L 29.1875 -30.46875 L 29.1875 -3.640625 L 32.375 -3.640625 L 32.375 0 L 21.828125 0 L 21.828125 -3.640625 L 25.015625 -3.640625 L 25.015625 -15.234375 L 11 -15.234375 L 11 -3.640625 L 14.1875 -3.640625 L 14.1875 0 L 3.640625 0 L 3.640625 -3.640625 L 6.828125 -3.640625 L 6.828125 -30.46875 L 3.640625 -30.46875 Z M 3.640625 -34.109375 "/></g></g></g><g fill="#d8ae5e" fill-opacity="1"><g transform="translate(262.334581, 282.553899)"><g><path d="M 20.375 -34.109375 L 30.46875 -34.109375 L 30.46875 -30.46875 L 27.734375 -30.46875 L 27.734375 -5 L 23 0 L 10.640625 0 L 5.90625 -5 L 5.90625 -30.46875 L 3.1875 -30.46875 L 3.1875 -34.109375 L 13.28125 -34.109375 L 13.28125 -30.46875 L 10.09375 -30.46875 L 10.09375 -6.3125 L 12.40625 -3.90625 L 21.1875 -3.90625 L 23.546875 -6.3125 L 23.546875 -30.46875 L 20.375 -30.46875 Z M 20.375 -34.109375 "/></g></g></g><g fill="#d8ae5e" fill-opacity="1"><g transform="translate(295.972887, 282.553899)"><g><path d="M 3.640625 -34.109375 L 21.828125 -34.109375 L 26.546875 -29.09375 L 26.546875 -20.921875 L 24.09375 -18.328125 L 27.46875 -14.828125 L 27.46875 -5 L 22.734375 0 L 3.640625 0 L 3.640625 -3.640625 L 6.828125 -3.640625 L 6.828125 -30.46875 L 3.640625 -30.46875 Z M 11 -16.1875 L 11 -3.90625 L 20.921875 -3.90625 L 23.546875 -6.59375 L 23.546875 -13.234375 L 20.6875 -16.1875 Z M 11 -30.1875 L 11 -19.828125 L 20 -19.828125 L 22.640625 -22.5 L 22.640625 -27.515625 L 20.046875 -30.1875 Z M 11 -30.1875 "/></g></g></g></svg>